<svg
   version="1.1"
   id="svg1"
   width="345.07617"
   height="382.9953"
   viewBox="0 0 345.07617 382.9953"
   sodipodi:docname="Shield.svg"
   inkscape:version="1.3.2 (091e20ef0f, 2023-11-25)"
   xmlns:inkscape="http://www.inkscape.org/namespaces/inkscape"
   xmlns:sodipodi="http://sodipodi.sourceforge.net/DTD/sodipodi-0.dtd"
   xmlns="http://www.w3.org/2000/svg"
   xmlns:svg="http://www.w3.org/2000/svg">
  <defs
     id="defs1" />
  <sodipodi:namedview
     id="namedview1"
     pagecolor="#ffffff"
     bordercolor="#000000"
     borderopacity="0.25"
     inkscape:showpageshadow="2"
     inkscape:pageopacity="0.0"
     inkscape:pagecheckerboard="0"
     inkscape:deskcolor="#d1d1d1"
     showgrid="false"
     inkscape:zoom="1.8032589"
     inkscape:cx="152.2244"
     inkscape:cy="168.30639"
     inkscape:window-width="1920"
     inkscape:window-height="1011"
     inkscape:window-x="0"
     inkscape:window-y="0"
     inkscape:window-maximized="1"
     inkscape:current-layer="layer1" />
  <g
     inkscape:groupmode="layer"
     id="layer1"
     inkscape:label="Layer 1"
     transform="translate(-67.494141,-48.320312)">
    <path
       style="display:inline;opacity:0.982;fill:#008000"
       d="m 248.18943,50.969968 160.19988,-0.230824 -2.22149,124.978696 -0.94258,69.37906 c 0,0 -1.86891,46.92319 -1.86891,47.87084 0,0.94764 -10.10247,32.0282 -10.10247,32.0282 0,0 -11.77456,23.26806 -13.03826,24.99594 -1.26369,1.72788 -25.4241,31.5691 -25.4241,31.5691 0,0 -23.28937,19.88027 -25.89641,20.5068 -2.60704,0.62652 -35.6595,18.0976 -36.99929,18.0976 -1.33979,0 -30.83756,7.8191 -32.50964,7.76989 -1.67208,-0.0492 -17.72068,-0.0492 -17.72068,-0.0492 0,0 -25.17755,-0.78987 -28.14884,-1.35806 -2.97129,-0.56818 -35.9025,-11.1115 -36.58634,-11.37124 -0.68385,-0.25974 -34.375,-20.27547 -34.375,-20.27547 l -29.01431,-28.0834 c 0,0 -17.496956,-25.9441 -18.317776,-28.33858 -0.82082,-2.39448 -12.555803,-34.1117 -12.555803,-34.1117 0,0 -5.516944,-28.26045 -4.775771,-28.57752 0.741172,-0.31707 -1.214489,-46.1247 -1.214489,-46.1247 L 75.14864,177.28541 73.253348,129.59619 71.285511,66.506696 70.380479,51.088677 226.06991,50.716822 Z"
       id="path5" />
    <path
       id="path4"
       style="display:inline;opacity:0.982;fill:#aa4400"
       d="m 195.98633,65.40625 c -0.46599,-0.0049 -0.88751,0.02778 -1.2168,0.113281 -1.31718,0.341985 -2.27124,1.461816 -3.02734,2.199219 -0.75611,0.737403 -0.0996,5.986328 -0.0996,5.986328 l 11.11523,-4.076172 c 0,0 -1.33423,-3.315693 -2.61133,-3.626953 -0.95782,-0.233444 -2.76218,-0.581112 -4.16015,-0.595703 z m 85.62109,0.951172 c -0.80888,0 -6.78515,2.154297 -6.78515,2.154297 l -0.70508,1.111328 14.60547,6.158203 c 0,0 -1.19376,-5.268027 -2.02735,-6.099609 -0.83358,-0.831584 -4.27902,-3.324219 -5.08789,-3.324219 z m -53.28906,59.908198 -18.41406,7.62891 c 0,0 14.11417,33.31361 18.17773,43.35742 l -16.24609,40.13086 -18.79297,44.32617 -18.29297,45.26758 -11.79297,28.22266 -5.04687,11.75195 c 0,0 0.27766,4.37393 1.01172,4.54492 0.73406,0.171 9.03906,5.80664 9.03906,5.80664 l 6.62695,2.04493 4.28711,-2.48438 9.45898,-20.87109 12.64258,-32.18946 10.94336,-27.9082 8.39258,-20.84765 11.25781,-29.59571 2.38281,-5.02148 5.51954,-13.89844 c 7.15534,18.22015 15.52539,39.38086 15.52539,39.38086 l 26.99804,67.70312 c 0,0 16.98136,39.20834 17.15235,40.70118 0.17099,1.49283 2.01562,2.40429 2.01562,2.40429 l 3.70899,2.53711 7.89843,-2.52343 6.65821,-5.38672 0.94922,-3.89063 -0.85547,-4.3125 -8.98633,-20.54297 -15.02734,-37.9082 -19.40821,-45.65625 -22.71094,-53.46875 -2.85937,-6.87305 17.44922,-43.92773 -18.05078,-7.66602 -3.73242,5.4043 -7.33985,18.12891 -7.27148,-17.48047 z" />
    <path
       id="path3"
       style="display:inline;opacity:0.982;fill:#b3b3b3"
       d="m 207.08984,68.554688 c -0.45602,0.124246 -10.08112,2.769664 -10.89062,3.390624 -0.8095,0.620961 -10.01268,5.054187 -10.34961,5.320313 -0.33693,0.266126 -11.85267,5.738479 -12.53711,6.146484 -0.68444,0.408006 -17.01437,4.944534 -18.22266,5.347657 -1.20828,0.403122 -21.62984,3.597429 -22.44531,3.804687 -0.81547,0.207259 -18.5244,1.339131 -18.92969,1.5 -0.4053,0.160869 0.68164,2.884766 0.68164,2.884766 l 2.23438,10.373051 3.64844,13.70312 2.5039,7.90625 2.37891,6.83008 4.86523,13.02539 3.92383,8.03906 4.76563,11.52539 5.42968,10.03906 6.93555,11.38672 c 0,0 1.29027,1.74939 1.16602,2.14844 -0.12424,0.39905 7.11914,-7.66211 7.11914,-7.66211 0,0 2.67647,-12.1137 3.01367,-12.38281 0.3372,-0.26911 0.69141,-9.25195 0.69141,-9.25195 l 4.82226,-5.53125 3.17578,-6.20899 c 0,0 4.33213,-12.65509 4.48242,-12.99609 0.15029,-0.341 4.88181,-6.9441 5.50196,-7.3125 0.62015,-0.3684 7.25781,-1.02149 7.25781,-1.02149 l 14.85547,5.35938 c 0,0 11.58006,-3.36002 12.04883,-3.56836 0.46877,-0.20834 15.29101,-6.94922 15.29101,-6.94922 L 217.7793,93.998047 c 0,0 -10.23344,-25.567605 -10.68946,-25.443359 z m 61.52735,0.857421 -20.61914,54.126951 c 0,0 0.98867,2.82315 1.95117,2.99414 0.9625,0.17099 17.05273,6.84375 17.05273,6.84375 l 9.13282,3.15039 8.09765,-4.67578 7.88672,-1.26953 8.07227,4.14063 6.04492,5.88672 2.35351,8.93164 5.07813,13.0371 c 0,0 4.39825,15.12117 4.74023,16.79102 0.34199,1.66984 2.4112,11.28354 3.75977,11.21875 1.34857,-0.0648 6.35742,3.26367 6.35742,3.26367 0,0 1.43776,-1.40332 1.87305,-1.82422 0.43529,-0.42091 4.53125,-7.23437 4.53125,-7.23437 l 5.72851,-9.82031 4.35157,-9.95118 c 0,0 4.63751,-12.24232 5.14843,-12.64843 0.51092,-0.40611 4.50782,-11.21485 4.50782,-11.21485 l 3.44336,-10.67187 c 0,0 2.63898,-10.13263 3.05078,-10.41992 0.41181,-0.28728 3.47461,-15.38086 3.47461,-15.38086 l 1.79296,-10.222659 c 0,0 -10.38829,-0.688197 -11.30468,-0.878907 -0.91638,-0.190709 -26.14879,-3.36245 -26.77735,-3.695312 -0.62856,-0.332861 -27.11885,-7.321387 -27.46093,-7.544922 -0.34208,-0.223535 -8.49832,-4.030584 -8.3125,-4.349609 0.18583,-0.319025 -23.95508,-8.582032 -23.95508,-8.582032 z" />
    <path
       id="path2"
       style="display:inline;opacity:0.982;fill:#e6e6e6"
       d="m 113.75,93.537109 c 0,0 -3.55888,0.685238 -4,0.642579 -0.44112,-0.04266 -1.05469,4.972656 -1.05469,4.972656 l 3.94531,19.660156 10.13868,29.03711 7.58593,20.08008 5.2793,9.17969 12.69141,17.21679 c 0,0 4.07815,-1.96182 4.32812,-2.08398 0.24998,-0.12215 -6.20117,-10.18555 -6.20117,-10.18555 0,0 -6.85288,-12.18923 -7.06836,-12.06641 -0.21548,0.12282 -5.25801,-11.66798 -5.36133,-11.91796 -0.10332,-0.24997 -5.97461,-14.18946 -5.97461,-14.18946 0,0 -4.54634,-11.94726 -4.67382,-12.27539 -0.12749,-0.32813 -2.63868,-8.16406 -2.63868,-8.16406 0,0 -2.30859,-8.39286 -2.30859,-8.66016 0,-0.26731 -2.04102,-8.53711 -2.04102,-8.53711 z m 255.62305,1.107422 -2.93555,0.16211 -1.76562,10.513669 -4.44336,18.12891 -5.0879,15.48633 -6.87304,17.83593 -6.75,16.21094 -6.6836,11.96485 -5.49609,8.40234 2.16406,2.13281 c 0,0 2.85799,-2.08522 3.10547,-2.25586 0.24747,-0.17065 11.27539,-17.7207 11.27539,-17.7207 l 8.56836,-18.74414 5.04883,-13.3125 4.27148,-17.10938 c 0,0 5.21396,-25.99858 5.41211,-26.16406 0.19815,-0.16548 0.18946,-5.531249 0.18946,-5.531249 z" />
    <path
       id="path1"
       style="fill:#000000"
       d="m 67.494141,48.320312 0.06836,24.560547 c 0.03776,13.507727 0.175788,27.150361 0.306641,30.318361 0.130832,3.168 0.323592,7.70408 0.427734,10.08008 0.104142,2.37579 0.25857,7.2007 0.34375,10.7207 0.08518,3.52 0.24908,7.48078 0.363281,8.80078 0.114201,1.32 0.233245,2.97569 0.265625,3.67969 0.120557,2.62087 0.51392,9.37958 0.716797,12.32031 0.115352,1.672 0.182911,4.0473 0.150391,5.2793 -0.05183,1.96378 0.358558,14.04587 0.74414,21.91992 0.07326,1.496 0.224738,6.17555 0.335938,10.39844 0.1112,4.22267 0.258905,7.76885 0.328125,7.88086 0.06922,0.11201 0.209832,3.71283 0.3125,8.00195 0.102667,4.28911 0.321247,10.75158 0.486328,14.35937 0.16508,3.608 0.304347,6.77507 0.310547,7.03907 0.0062,0.264 0.172069,3.79205 0.367187,7.83984 0.195139,4.048 0.373635,8.80055 0.396485,10.56055 0.02286,1.76 0.147619,6.29608 0.277343,10.08008 0.718986,20.96865 0.947236,28.85965 0.884766,30.55664 -0.03234,0.8784 0.176366,3.39801 0.462891,5.59961 0.453087,3.48137 0.68254,4.76555 1.259765,7.04297 0.06691,0.26379 0.423741,1.91968 0.792969,3.67968 0.611414,2.91442 3.47594,12.01835 4.203125,13.35742 0.165941,0.30561 0.300781,0.83569 0.300781,1.17969 0,0.344 0.144313,0.71545 0.320313,0.82422 0.176,0.10877 0.320312,0.51964 0.320312,0.91406 0,0.39441 0.120075,0.85429 0.267578,1.02149 0.147524,0.1672 0.666993,1.45528 1.154297,2.86328 0.887558,2.56443 2.579825,6.81339 3.726563,9.35742 C 87.724979,329.30272 88,329.98873 88,330.08203 c 0,0.36623 5.504874,11.47322 6.3125,12.73633 0.472134,0.73839 1.09076,1.77278 1.375,2.30078 1.812732,3.36739 5.07551,8.46942 8.23828,12.88281 1.10278,1.53891 2.25338,3.15131 2.5586,3.58399 0.5673,0.80451 3.06555,4.10388 5.70312,7.5332 2.52567,3.28383 12.43129,14.07188 13.30859,14.49414 0.11868,0.0571 1.28672,1.14048 2.59571,2.40625 3.12171,3.01883 9.49334,8.6849 11.58203,10.30078 3.60725,2.79086 8.08957,6.12924 9.45117,7.03907 0.78943,0.5273 1.5077,1.04735 1.5957,1.15624 0.30567,0.37896 4.02711,2.6664 8.95899,5.50391 4.96106,2.85443 14.1154,7.4461 17.95898,9.00781 1.12265,0.45619 2.31141,0.98239 2.64258,1.16993 0.33116,0.18753 1.26724,0.52661 2.08008,0.7539 0.81283,0.2273 3.1342,0.99863 5.1582,1.71485 5.75832,2.03746 11.78764,3.77816 18.45508,5.32421 6.49276,1.50575 10.79001,2.14418 18.3457,2.72852 2.552,0.19737 4.99946,0.40183 5.43946,0.45313 0.44,0.051 5.12499,0.11422 10.41015,0.14062 14.24238,0.0711 23.78712,-1.06368 38.75196,-4.60742 6.39022,-1.51334 19.75319,-6.10123 26.51757,-9.10352 0.352,-0.15622 1.72102,-0.74276 3.04102,-1.30273 2.0871,-0.88538 9.4986,-4.67214 12.32031,-6.29492 0.528,-0.30369 1.82291,-1.04579 2.87891,-1.64844 6.12663,-3.49655 15.74274,-10.05066 19.83008,-13.51758 0.69825,-0.59244 2.28199,-1.94205 3.51953,-2.99805 1.23753,-1.056 3.30068,-2.7687 4.58398,-3.80664 2.65924,-2.15061 13.11037,-12.77883 16.51367,-16.79297 4.07209,-4.80245 6.9447,-8.4539 9.60157,-12.20117 2.52951,-3.56774 6.72818,-9.88929 7.40429,-11.15039 0.18287,-0.3411 0.49246,-0.81592 0.68946,-1.05469 1.65328,-2.0039 8.94164,-16.54335 11.18359,-22.3125 4.66625,-12.00769 8.00209,-24.77903 9.70898,-37.1621 0.34867,-2.52933 0.6447,-9.18891 0.82813,-18.62696 0.0606,-3.11694 0.1861,-7.93969 0.2793,-10.71875 0.28027,-8.35911 0.54916,-17.53991 0.67773,-23.13281 0.0668,-2.904 0.20441,-8.37616 0.30469,-12.16016 0.10028,-3.78379 0.23643,-9.83612 0.30273,-13.44922 0.0663,-3.61289 0.20539,-8.58211 0.3086,-11.04101 0.22786,-5.42823 0.585,-19.66053 0.6582,-26.23047 0.083,-7.45242 0.46011,-22.35553 0.66016,-26.08008 0.38965,-7.25838 0.42094,-10.69474 0.13085,-11.56054 0.4228,-1.7717 0.38533,-17.76665 0.35743,-23.71876 0.0391,-1.89224 0.0782,-3.96972 0.13086,-5.20117 0.12771,-2.98954 0.47099,-13.827813 0.63476,-19.999997 0.0397,-1.495958 0.18826,-10.460111 0.32813,-19.919922 l 0.2539,-17.199219 H 240.0332 Z m 285.267579,4.875 c 31.05942,0.03135 51.79524,0.11026 51.88281,0.251954 0.26876,0.434854 0.25767,22.883219 -0.0137,27.671875 -0.25885,4.568304 -0.83254,41.200409 -0.94727,60.480469 -0.0576,9.67979 -0.26019,24.08021 -0.44921,32 -0.18923,7.91979 -0.41611,17.85608 -0.50391,22.08008 -0.0878,4.22379 -0.29919,14.08813 -0.4707,21.91992 -0.17152,7.83179 -0.39685,18.70416 -0.5,24.16016 -0.67509,35.70762 -0.83918,40.81032 -1.4375,44.80078 -0.15833,1.056 -0.52297,3.57561 -0.81055,5.59961 -0.83578,5.88194 -1.78105,9.78185 -5.1211,21.11914 -0.4172,1.41687 -1.23687,3.74184 -2.8789,8.16015 -0.45784,1.232 -0.98955,2.67338 -1.18164,3.20117 -0.19209,0.528 -0.54282,1.24269 -0.7793,1.58985 -0.23647,0.34716 -0.43164,0.801 -0.43164,1.00781 0,0.42797 -2.90128,6.37616 -4.97656,10.20117 -0.76387,1.408 -1.68072,3.13585 -2.03711,3.83985 -0.35639,0.704 -1.47949,2.58399 -2.49609,4.17773 -5.34061,8.37068 -4.63564,7.34609 -10.03711,14.56641 -3.65298,4.88266 -6.33972,7.94848 -12.57618,14.34375 -8.91189,9.13883 -21.29111,19.67253 -25.73828,21.90234 -0.64759,0.3247 -1.61067,0.99058 -2.13867,1.47852 -0.528,0.48794 -1.96722,1.49008 -3.19922,2.22656 -2.64043,1.57843 -2.9768,1.78013 -5.19922,3.14453 -0.9317,0.572 -1.75839,1.04102 -1.83789,1.04102 -0.0795,0 -1.20392,0.6254 -2.49804,1.39062 -2.26897,1.34146 -6.80114,3.61092 -10.46485,5.24024 -0.968,0.43049 -2.1927,0.97531 -2.7207,1.21093 -6.02772,2.68991 -13.8276,5.538 -18.87891,6.89258 -14.78637,3.96526 -23.4426,5.4135 -36.23828,6.05859 -7.618,0.38418 -9.69443,0.36258 -17.36133,-0.17382 -11.38331,-0.79643 -21.9976,-2.60751 -32.48047,-5.54102 -1.23179,-0.34476 -4.04023,-1.13075 -6.24023,-1.74805 -2.2,-0.61731 -4.64745,-1.39903 -5.43945,-1.73632 -0.792,-0.33729 -2.30533,-0.86402 -3.36133,-1.17188 -6.03364,-1.75896 -21.87678,-10.07855 -28.31836,-14.86914 -1.32,-0.98165 -2.74905,-1.97138 -3.17578,-2.19922 -0.42674,-0.22785 -2.15654,-1.52459 -3.8418,-2.88281 -1.68527,-1.35823 -3.78406,-3.0023 -4.66406,-3.65234 -1.85125,-1.36791 -2.70205,-2.09299 -6.95703,-5.92774 -1.71508,-1.54562 -3.12018,-2.98923 -3.1211,-3.20703 -9.2e-4,-0.21779 -0.54117,-0.74158 -1.20117,-1.16406 -2.34214,-1.49924 -10.35067,-9.86615 -13.83984,-14.45899 -0.792,-1.04246 -1.87239,-2.37748 -2.40039,-2.96679 -0.528,-0.58932 -1.09519,-1.3092 -1.25977,-1.60157 -0.16458,-0.29237 -0.97409,-1.39712 -1.80078,-2.45312 -0.82669,-1.056 -2.46123,-3.35914 -3.63086,-5.11914 -1.16962,-1.76 -2.34727,-3.48785 -2.61719,-3.83985 -1.24698,-1.62592 -5.18604,-7.95041 -6.478512,-10.40039 -2.458866,-4.66088 -5.8694,-11.56774 -6.144531,-12.44336 -0.144628,-0.46028 -0.721015,-1.91653 -1.279297,-3.23632 -1.971434,-4.66118 -3.787587,-9.91871 -5.251953,-15.19922 -0.292842,-1.056 -0.739254,-2.56933 -0.992188,-3.36133 -1.262948,-3.95475 -3.024071,-12.9588 -3.503906,-17.91992 -0.110642,-1.144 -0.399909,-3.30283 -0.644531,-4.79883 -0.244622,-1.496 -0.604078,-6.46502 -0.796875,-11.04102 -0.192797,-4.57579 -0.410395,-9.4007 -0.484375,-10.7207 -0.07398,-1.32 -0.212224,-5.56766 -0.308594,-9.43945 -0.244206,-9.81173 -0.930335,-27.68009 -1.761719,-45.91992 -0.172452,-3.784 -0.462248,-12.49559 -0.644531,-19.35938 -0.182282,-6.86379 -0.468523,-15.21655 -0.636719,-18.56055 -0.168175,-3.34379 -0.461662,-10.68831 -0.65039,-16.32031 -0.365343,-10.90235 -0.370331,-11.01584 -0.892578,-18.87891 -0.187039,-2.81579 -0.496939,-10.16031 -0.689453,-16.32031 -0.192534,-6.15979 -0.419097,-12.56823 -0.503907,-14.24023 -0.08481,-1.672 -0.29514,-7.216419 -0.466797,-12.320314 -0.465646,-13.845678 -0.917359,-26.34068 -1.126953,-31.199219 -0.102497,-2.375958 -0.07111,-4.487651 0.07031,-4.691406 0.295481,-0.425792 186.399859,-0.767858 279.578129,-0.673829 z m -158.125,9.908204 c -0.51172,0.09549 -0.79996,0.317085 -1.31445,0.75 -1.64157,1.381248 -4.16877,4.903833 -4.56055,6.357422 -0.72816,2.701606 -0.88395,2.82477 -4.96094,3.884765 -0.19792,0.05146 -0.46096,0.765552 -0.58398,1.585938 -0.20028,1.335531 -0.34699,1.542454 -1.40039,1.978515 -0.64706,0.267867 -1.89735,0.822137 -2.77735,1.232422 -0.88,0.410306 -2.03059,0.846996 -2.55859,0.970703 -0.528,0.123707 -1.10525,0.336345 -1.28125,0.472657 -0.41418,0.320761 -7.65796,2.725773 -9.11914,3.027343 -0.616,0.127144 -1.2796,0.35914 -1.47461,0.515625 -0.19501,0.156485 -1.41992,0.560477 -2.7207,0.898438 -1.30099,0.337941 -2.94054,0.820157 -3.64454,1.070312 -2.16598,0.769761 -6.7764,1.762086 -12.80078,2.757813 -11.26637,1.862171 -16.81964,2.295266 -30.13672,2.347656 -6.63493,0.0261 -9.93949,0.151314 -10.09765,0.382813 -0.33431,0.489308 -0.3007,2.363327 0.0547,3.027343 0.34553,0.645634 1.67398,7.073179 2.39843,11.607419 0.27165,1.70028 1.12803,5.73322 1.90235,8.96094 0.77432,3.22772 1.49409,6.45765 1.59961,7.17774 0.39074,2.66633 3.71652,13.50119 4.85156,15.80273 0.39287,0.79664 1.18003,2.74433 1.74805,4.32812 0.56801,1.584 1.21911,3.2395 1.44726,3.67969 0.22815,0.44019 0.70193,1.52058 1.05274,2.40039 4.60656,11.55339 10.54532,24.69841 12.72265,28.16016 0.55349,0.88 1.76848,3.03883 2.69922,4.79883 0.93074,1.76 1.93657,3.48784 2.23633,3.83984 0.29976,0.352 1.09484,1.50455 1.76562,2.56055 2.10843,3.31909 5.31624,8.11854 6.25782,9.36328 2.13275,2.81974 2.21354,2.89764 2.83789,2.73437 1.17267,-0.30666 8.34936,-8.32571 11.27539,-12.59961 3.04964,-4.45456 4.2712,-8.5973 4.58789,-15.54296 0.39703,-8.70801 1.44035,-10.95346 6.13281,-13.22071 1.37321,-0.66346 2.17655,-1.45325 2.45508,-2.41406 0.10203,-0.352 0.40366,-2.76315 0.67187,-5.35742 0.26821,-2.59427 0.61885,-4.96957 0.7793,-5.2793 0.16045,-0.30973 0.67896,-1.58176 1.15234,-2.82617 1.35583,-3.56412 3.7029,-7.53511 4.94922,-8.375 1.95456,-1.31718 4.19978,-1.76273 8.13282,-1.61328 4.17246,0.15856 6.00394,0.82743 9.18359,3.35547 4.30652,3.42377 4.35672,3.4394 7.0293,2.20117 1.60207,-0.74235 2.55078,-0.79008 2.55078,-0.12695 0,0.17097 0.53646,0.26483 1.1914,0.20703 1.10362,-0.0973 1.239,-0.0125 1.86329,1.17383 1.44229,2.74087 2.90303,6.27097 8.67382,20.96093 1.14081,2.904 2.65779,6.64852 3.3711,8.32031 0.7133,1.672 1.7723,4.3947 2.35351,6.05079 l 1.05664,3.01171 -0.62109,1.57618 c -0.34204,0.86778 -0.83433,1.98857 -1.09375,2.49023 -0.25942,0.50166 -0.81677,1.82117 -1.23828,2.93164 -1.22697,3.23238 -1.88429,4.83091 -4.84375,11.7793 -3.35015,7.86568 -4.15073,9.79907 -5.10547,12.32031 -0.39989,1.056 -1.09354,2.71169 -1.54102,3.67969 -0.44749,0.968 -1.40703,3.19898 -2.13281,4.95898 -1.42591,3.4578 -1.46097,3.5421 -2.74219,6.40039 -1.04665,2.33515 -3.54985,8.42509 -4.27539,10.40039 -0.29088,0.792 -1.15624,2.95083 -1.92187,4.79883 -0.76563,1.848 -1.71853,4.1531 -2.11719,5.1211 -2.54803,6.18666 -6.52688,15.68206 -9.15625,21.84765 -1.03387,2.42441 -1.88181,4.51304 -1.88281,4.64063 -0.001,0.12759 -0.23237,0.6634 -0.51367,1.1914 -0.2813,0.528 -0.99277,2.18369 -1.58203,3.67969 -0.58946,1.496 -1.87151,4.66172 -2.84766,7.0332 -0.97614,2.37168 -1.77344,4.44218 -1.77344,4.60157 0,0.24566 -1.43494,3.72214 -3.07226,7.44531 -0.24167,0.54947 -1.29128,3.06908 -2.33204,5.59961 -1.04055,2.53052 -2.6707,6.47372 -3.62109,8.76172 -0.9504,2.288 -2.19576,5.38311 -2.76758,6.8789 -0.57181,1.496 -1.24495,3.15169 -1.49609,3.67969 -0.46381,0.97514 -2.66411,6.30714 -3.56641,8.64063 -0.27222,0.704 -0.68337,1.71223 -0.91406,2.24023 -1.87102,4.2824 -3.35156,7.88956 -3.35156,8.16992 0,0.3222 -1.41851,3.06017 -2.81446,5.42969 -0.87034,1.47769 -1.24678,5.23392 -0.69335,6.92188 0.56507,1.72388 1.80135,3.25054 3.21679,3.97265 0.65984,0.33662 1.8235,1.02575 2.58594,1.53125 2.36078,1.5652 7.90655,4.30858 9.78125,4.83789 1.20756,0.34094 4.19419,0.0328 5.36328,-0.55273 1.36204,-0.68217 2.67665,-1.83566 3.54102,-3.10938 1.04164,-1.53494 2.85089,-5.40064 3.5957,-7.68164 0.34482,-1.056 0.85705,-2.42306 1.13867,-3.03906 0.52643,-1.15147 4.79139,-11.88522 5.4043,-13.60156 0.78652,-2.20247 6.02432,-15.14097 7.125,-17.59961 0.23637,-0.528 0.67306,-1.68055 0.9707,-2.56055 0.29764,-0.88 0.79883,-2.17491 1.11328,-2.87891 0.31444,-0.70379 1.31915,-3.22361 2.23242,-5.59961 1.91848,-4.9898 6.79384,-17.3924 7.6836,-19.54492 0.33279,-0.80508 0.84536,-2.17214 1.13867,-3.03906 0.29331,-0.86693 0.79316,-2.15342 1.10938,-2.85742 0.31601,-0.704 1.32383,-3.22361 2.24023,-5.59961 0.9164,-2.376 1.84996,-4.7513 2.07422,-5.2793 0.48041,-1.13111 3.10745,-7.87589 4.05078,-10.40039 0.36171,-0.968 0.99956,-2.55153 1.41797,-3.51953 0.41841,-0.968 1.25549,-3.12878 1.85937,-4.80078 0.60389,-1.672 1.59245,-4.21027 2.19727,-5.64063 0.60482,-1.43016 1.19762,-2.99376 1.31836,-3.4746 0.12073,-0.48106 0.4902,-1.47064 0.82031,-2.19922 0.33011,-0.72858 2.05829,-4.99638 3.83984,-9.48438 1.78177,-4.48779 3.43677,-8.59309 3.67774,-9.12109 0.24096,-0.528 0.96565,-2.28367 1.61133,-3.90235 1.83878,-4.60953 2.27773,-4.63908 3.93164,-0.25781 0.5315,1.408 1.41185,3.60486 1.95703,4.88086 2.49246,5.83344 3.01478,7.12115 3.85547,9.51953 0.49354,1.408 1.25491,3.35927 1.6914,4.33594 0.43648,0.97668 0.97541,2.34374 1.19727,3.03906 0.22185,0.69533 0.95206,2.56053 1.62305,4.14453 0.671,1.584 2.17332,5.32832 3.33984,8.32032 1.16653,2.99179 2.46017,6.30337 2.87305,7.35937 0.41288,1.056 1.07094,2.7858 1.46289,3.8418 0.39195,1.056 1.12576,2.86735 1.63086,4.02539 0.50509,1.15804 0.91797,2.20845 0.91797,2.33594 0,0.23809 3.24835,8.44738 4.69921,11.87695 0.4468,1.056 0.93356,2.20855 1.08204,2.56055 0.41016,0.97223 2.18729,5.5003 3.07617,7.83984 0.43465,1.144 0.9791,2.51322 1.21093,3.04101 0.23203,0.528 1.59957,3.9839 3.03711,7.67969 3.31964,8.53349 4.75205,12.13388 5.5,13.82227 0.32718,0.73835 0.59571,1.43048 0.59571,1.53711 0,0.17847 2.0337,5.11843 3.02929,7.35937 0.23463,0.528 0.64832,1.6264 0.91993,2.43946 0.27161,0.81286 0.79046,2.00611 1.15234,2.65039 0.36187,0.64429 0.6582,1.31761 0.6582,1.49804 0,0.28164 0.56638,1.70402 2.73438,6.85352 0.22229,0.528 1.42538,3.52889 2.67383,6.66992 1.24846,3.14104 2.47603,6.16574 2.72656,6.7207 0.25053,0.55497 0.78457,1.94054 1.1875,3.07813 1.04099,2.939 2.28223,5.09682 3.75976,6.53711 1.06285,1.03592 1.6485,1.31762 3.45899,1.66797 2.55248,0.49393 4.32764,0.55656 4.7539,0.16797 0.1672,-0.15235 1.49294,-0.65302 2.94532,-1.11329 1.45239,-0.46027 3.24731,-1.14541 3.98828,-1.52343 1.55591,-0.79376 6.52541,-4.89175 6.99414,-5.76758 0.1742,-0.32551 0.39979,-1.71068 0.50195,-3.07617 0.24449,-3.26799 -0.35743,-5.55606 -2.75976,-10.49805 -2.52699,-5.19778 -3.83201,-8.05524 -4.36719,-9.55664 -0.24553,-0.68881 -0.57081,-1.40842 -0.72266,-1.59961 -0.15186,-0.1912 -0.81751,-1.71472 -1.47851,-3.38672 -0.66101,-1.672 -1.45856,-3.61631 -1.77149,-4.32031 -0.31294,-0.704 -0.95629,-2.28753 -1.43164,-3.51953 -0.47535,-1.232 -1.12223,-2.81749 -1.4375,-3.52149 -0.82409,-1.84022 -2.82285,-6.71745 -3.66992,-8.95898 -1.07528,-2.84543 -3.64191,-9.39144 -4.33008,-11.04102 -2.60089,-6.23472 -3.19726,-7.69503 -3.19726,-7.83984 0,-0.2036 -4.24399,-10.27382 -5.25977,-12.48047 -0.40509,-0.88 -1.41375,-3.32745 -2.24219,-5.43945 -0.82844,-2.112 -1.92682,-4.71277 -2.4414,-5.7793 -0.51459,-1.06653 -0.93555,-2.08705 -0.93555,-2.26953 0,-0.44845 -3.97988,-9.82755 -4.93555,-11.63086 -0.41973,-0.792 -1.27821,-2.75917 -1.90625,-4.37109 -0.62804,-1.61213 -1.34978,-3.41213 -1.60547,-4 -0.25548,-0.58787 -0.84857,-2.0766 -1.3164,-3.3086 -0.46784,-1.232 -1.04535,-2.67317 -1.2832,-3.20117 -1.82015,-4.04059 -2.61454,-5.90398 -3.88477,-9.11914 -0.79963,-2.024 -2.08708,-4.99465 -2.86133,-6.60156 -0.77425,-1.60692 -1.4082,-3.01205 -1.4082,-3.12305 0,-0.2048 -0.83596,-2.16068 -1.94727,-4.55078 -0.33629,-0.72328 -0.61133,-1.48385 -0.61133,-1.69141 0,-0.20755 -0.4992,-1.48852 -1.10742,-2.8457 -0.60823,-1.35717 -1.81762,-4.19464 -2.68945,-6.30664 -0.87183,-2.112 -2.25838,-5.28102 -3.08008,-7.04102 -0.82171,-1.75979 -1.70798,-3.81961 -1.96875,-4.57812 -0.26078,-0.7585 -0.88521,-2.27183 -1.38867,-3.36133 -0.50346,-1.08949 -1.21504,-2.74467 -1.58203,-3.67773 -0.66584,-1.69283 -0.6659,-1.69888 -0.043,-3.19922 0.34335,-0.82694 1.79105,-4.67118 3.2168,-8.54297 1.42576,-3.872 3.43835,-9.05553 4.47265,-11.51953 1.0343,-2.464 2.67961,-6.49694 3.65821,-8.96094 4.46137,-11.23359 4.36701,-11.06369 5.63086,-9.91992 0.55877,0.50568 0.7828,0.54515 1.29296,0.22656 0.87329,-0.54538 1.57714,-0.48247 2.97657,0.26758 1.4398,0.77169 2.05539,0.63633 3.56054,-0.7832 1.60189,-1.51078 6.58209,-3.84472 9.97852,-4.67579 2.79544,-0.68381 2.99807,-0.69243 4.45703,-0.19531 0.84064,0.28643 1.74267,0.51953 2.00391,0.51953 0.63388,0 3.34734,1.73212 5.34179,3.40821 3.4481,2.8972 5.65796,8.53896 6.06055,15.47265 0.23826,4.10362 0.49337,5.11914 1.2832,5.11914 0.59845,0 2.21286,1.69295 3.50782,3.67969 1.78833,2.74398 2.16095,4.42746 3.08007,13.91992 0.44665,4.61189 1.0285,6.85306 2.60547,10.02735 1.73073,3.48357 5.91018,7.8975 10.61328,11.20898 4.73893,3.33657 5.43107,3.72461 6.64258,3.72461 1.12015,0 1.34123,-0.17698 3.30274,-2.64062 1.15596,-1.452 2.36169,-2.9273 2.67968,-3.2793 1.58104,-1.75009 4.97988,-7.25607 7.90235,-12.80078 0.64933,-1.232 1.29114,-2.3826 1.42578,-2.5586 1.3268,-1.73426 10.24609,-21.17635 10.24609,-22.33398 0,-0.23062 0.11503,-0.55546 0.25586,-0.72266 0.23705,-0.28144 1.02546,-2.24165 1.98828,-4.94336 0.21953,-0.616 0.66713,-1.7063 0.9961,-2.42187 0.32896,-0.71557 0.59961,-1.54019 0.59961,-1.83203 0,-0.29184 0.65898,-2.51312 1.46484,-4.9375 0.80587,-2.42459 1.58141,-5.05761 1.72461,-5.84961 0.14321,-0.792 0.92979,-4.10338 1.74805,-7.35938 1.72943,-6.8815 2.42769,-9.82409 3.37304,-14.24023 0.37674,-1.76 0.9656,-4.42413 1.31055,-5.91992 0.80723,-3.50081 1.83058,-16.927111 1.31445,-17.246098 -0.19702,-0.121749 -1.47144,-0.07873 -2.83203,0.09375 -3.52773,0.447299 -22.49932,-0.708438 -31.46484,-1.916015 -4.18913,-0.564235 -13.81153,-2.485714 -18.39844,-3.673828 -1.408,-0.36471 -3.64094,-0.926687 -4.96094,-1.25 -7.75355,-1.89924 -15.77093,-4.393314 -18.83789,-5.859375 -1.31511,-0.62866 -1.50086,-0.847217 -1.64257,-1.939453 -0.14903,-1.146987 -0.267,-1.267441 -1.73438,-1.759766 -1.54899,-0.519686 -1.59331,-0.572635 -2.65234,-3.125 -0.99336,-2.394117 -1.20141,-2.66316 -2.65625,-3.455078 -0.86772,-0.472273 -1.65681,-0.987375 -1.75391,-1.144531 -0.0971,-0.157178 -0.94697,-0.726857 -1.88867,-1.265625 -1.21659,-0.696058 -2.12981,-0.978516 -3.15821,-0.978516 -1.78214,0 -5.3045,1.054425 -6.40234,1.917969 -1.09799,0.863657 -1.74502,0.810943 -3.86133,-0.31836 -1.8159,-0.968998 -3.21299,-1.223437 -3.56836,-0.648437 -0.10632,0.172022 -0.52773,1.216355 -0.9375,2.320312 -0.40977,1.103956 -2.15374,5.75223 -3.875,10.328125 -1.72105,4.575916 -3.31109,8.823454 -3.5332,9.439454 -0.82892,2.298892 -4.69046,12.747962 -5.79492,15.679692 -2.8642,7.60262 -3.73786,9.85877 -4.33789,11.20117 -0.354,0.792 -0.83088,2.01475 -1.0586,2.71875 -0.58027,1.79397 -2.62679,7.15939 -3.19336,8.36914 -0.64529,1.37828 -0.5953,2.02139 0.23047,2.90039 0.81386,0.86631 0.7795,1.0513 -1.16211,6.17187 -4.0511,10.68464 -4.72398,11.91714 -5.60156,10.27735 -0.17716,-0.33102 -0.55442,-1.30318 -0.83984,-2.16016 -0.28541,-0.85697 -1.21464,-2.99781 -2.06446,-4.75781 -3.46874,-7.1841 -3.65745,-7.84326 -2.5039,-8.77735 0.62155,-0.5033 0.65704,-0.68862 0.34766,-1.8125 -0.32684,-1.18631 -1.45225,-3.99408 -2.87305,-7.16992 -0.35433,-0.792 -0.95119,-2.27522 -1.32617,-3.29492 -1.23772,-3.36578 -4.22355,-10.92179 -4.83008,-12.22461 -0.32775,-0.704 -1.84397,-4.304 -3.36914,-7.999999 -1.52518,-3.695916 -3.04885,-7.305937 -3.38672,-8.021484 -0.33787,-0.715546 -0.61328,-1.414902 -0.61328,-1.552735 0,-0.137813 -0.20508,-0.703234 -0.45508,-1.257812 -0.25,-0.554577 -0.98317,-2.37687 -1.62891,-4.048828 -0.64573,-1.671958 -1.72023,-4.40812 -2.38867,-6.080078 C 211.81984,74.167865 211.17189,72.44 211.04883,72 c -0.49595,-1.77322 -2.16586,-5.944895 -2.53125,-6.324219 -0.31365,-0.325588 -0.74037,-0.283653 -2.1836,0.212891 l -1.79492,0.617187 -0.73047,-0.779297 c -1.63142,-1.736747 -3.41545,-2.451123 -6.51562,-2.613281 -1.41011,-0.07376 -2.14453,-0.10526 -2.65625,-0.0098 z m 3.49023,4.164062 c 1.26221,0.152398 1.92593,0.886596 1.14258,1.669922 -0.26015,0.260141 -0.56292,0.382369 -0.67187,0.273438 -0.109,-0.108953 -0.19727,-0.03379 -0.19727,0.166015 0,0.199806 -0.21647,0.280995 -0.48047,0.179688 -0.264,-0.101306 -0.48047,-0.01772 -0.48047,0.1875 0,0.205198 -0.13971,0.28722 -0.31054,0.18164 -0.17083,-0.105579 -0.74406,0.03384 -1.27539,0.308594 -0.53132,0.274759 -1.07709,0.502813 -1.21094,0.507813 -0.13384,0.005 -0.55849,0.217247 -0.94531,0.470703 -0.83416,0.546507 -1.20879,0.156898 -0.92774,-0.962891 0.23909,-0.95257 2.53344,-2.660671 3.92578,-2.921875 0.52217,-0.09796 1.01091,-0.111346 1.43164,-0.06055 z m 82.94727,1.34375 c 1.56499,0.272495 3.40625,1.338989 3.40625,2.228516 0,0.21064 -0.28863,0.382812 -0.64063,0.382812 -0.352,0 -0.64062,-0.120858 -0.64062,-0.269531 0,-0.14867 -0.14236,-0.18104 -0.31836,-0.07227 -0.176,0.108774 -0.32031,0.03662 -0.32031,-0.160156 0,-0.196776 -0.13499,-0.275086 -0.29883,-0.173828 -0.16384,0.101258 -0.38963,0.03524 -0.50195,-0.146484 -0.11232,-0.181744 -0.33812,-0.247743 -0.50196,-0.146485 -0.16384,0.101258 -0.29687,0.02295 -0.29687,-0.173828 0,-0.19677 -0.14269,-0.269475 -0.31641,-0.162109 -0.17372,0.107366 -0.61874,-0.08737 -0.98828,-0.431641 l -0.67187,-0.625 0.69531,-0.220703 c 0.38225,-0.121322 0.87286,-0.120128 1.39453,-0.0293 z m -75.33399,1.789063 c 0.48509,0 5.19633,10.580815 7.69336,17.279297 0.49209,1.319958 1.25141,3.192177 1.6875,4.160156 0.43609,0.967979 1.20001,2.840177 1.69727,4.160156 0.49726,1.319979 1.39753,3.623182 2,5.11914 1.92278,4.77445 2.21955,5.5325 3.58594,9.12109 1.46793,3.85551 2.70939,6.96203 3.96484,9.91993 0.89582,2.11041 1.07377,3.00554 0.41992,3.66015 -1.37447,0.57778 -6.43121,2.70182 -10.98242,4.58008 -0.0545,0.0149 -0.22604,0.0817 -0.26367,0.0898 -0.0346,0.008 -0.0544,0.0438 -0.0898,0.0547 -2.76422,1.13943 -5.04875,2.06403 -5.66406,2.26758 -0.1449,-0.0529 -0.2331,-0.0535 -0.44531,-0.15625 -0.32593,-0.15785 -0.39154,-0.27128 -0.5625,-0.41016 l -0.50977,-0.98242 c -0.11615,-0.60004 -0.31221,-1.1303 -0.53906,-1.36133 l -0.40234,-1.02343 c -0.0135,-0.0186 0.003,-0.0307 -0.0117,-0.0488 -0.19607,-0.23619 -0.25689,-0.42969 -0.13477,-0.42969 0.0623,0 -0.0902,-0.16294 -0.14453,-0.25781 l -0.77148,-1.95703 c 0.007,-0.0162 -0.0231,-0.0316 -0.0137,-0.0469 0.0131,-0.0213 -0.0271,-0.019 -0.0195,-0.0391 l -1.11719,-2.83203 -0.41407,-1.04883 c -0.006,-0.0497 -0.0205,-0.0816 -0.0449,-0.11523 l -2.26562,-5.73633 c -0.007,-0.0342 -0.0111,-0.0355 -0.0176,-0.0703 -0.0757,-0.40864 -0.47962,-1.48904 -0.89648,-2.4004 -0.73376,-1.604 -1.0961,-2.52817 -1.1836,-3.01953 -0.008,-0.0431 -0.20275,-0.37724 -0.27734,-0.52929 -0.0803,-0.22156 -5.4073,-14.926524 -5.79688,-14.875004 -0.029,0.0038 -0.0872,-0.0767 -0.1582,-0.195312 -0.0617,-0.226098 -0.0945,-0.424971 -0.25586,-0.736328 -0.85165,-1.643429 -1.60222,-3.421508 -1.54492,-3.660157 0.0185,-0.07711 -0.0942,-0.09657 -0.16406,-0.140625 -0.18237,-0.454672 -0.35959,-0.891181 -0.54297,-1.355468 -0.0245,-0.05365 -0.004,-0.07355 -0.0312,-0.126954 -0.24454,-0.47136 -0.36473,-0.857421 -0.26563,-0.857421 0.0991,0 -0.0103,-0.229964 -0.24414,-0.511719 -0.0602,-0.07251 -0.0729,-0.144084 -0.1289,-0.226563 -0.19799,-0.50868 -0.39868,-1.020551 -0.57227,-1.470703 -0.14115,-0.572426 -0.28769,-0.956042 -0.43555,-1.123047 -0.31275,-0.81678 -0.56075,-1.471985 -0.58007,-1.523437 -0.15087,-0.75904 -0.42248,-1.709104 -0.75391,-2.345703 -1.10154,-2.115812 -0.75658,-2.508104 3.48437,-3.97461 1.48063,-0.511958 3.91611,-1.383857 5.41211,-1.9375 4.26419,-1.578058 8.02654,-2.886718 8.30078,-2.886718 z m 64.83008,0.958984 c 0.35548,0 3.97195,1.126726 5.10938,1.591797 0.352,0.143926 2.00769,0.730224 3.67969,1.302734 1.67179,0.572531 3.32471,1.236815 3.67187,1.47461 0.34716,0.237773 0.9474,0.43164 1.33398,0.43164 0.38658,0 1.11111,0.218836 1.60938,0.486328 0.49826,0.267513 1.30446,0.625077 1.79297,0.794922 0.48851,0.169846 0.97372,0.530689 1.07812,0.802735 0.19672,0.51262 -0.84338,3.79237 -2.43554,7.675781 -0.50516,1.231979 -1.66373,4.184589 -2.57422,6.560547 -0.91049,2.375937 -1.86164,4.823453 -2.11328,5.439453 -0.25164,0.615979 -0.51409,1.427312 -0.58399,1.802734 -0.0699,0.375444 -0.40181,1.239374 -0.73633,1.919924 -0.33452,0.68056 -0.8022,1.88573 -1.04101,2.67773 -0.23882,0.792 -0.62469,1.66766 -0.85742,1.94531 -0.23273,0.27786 -0.42383,0.70273 -0.42383,0.94532 0,0.52599 -4.32501,11.92591 -5.00391,13.18945 -0.26055,0.484 -0.37536,0.87891 -0.25586,0.87891 0.1195,0 0.0208,0.23824 -0.2207,0.52929 -0.24159,0.29105 -0.39038,0.54365 -0.33008,0.56055 0.0603,0.0169 -0.0422,0.39008 -0.22851,0.83008 -0.18629,0.44 -0.93319,2.34167 -1.65821,4.22461 -1.49071,3.8713 -1.80725,4.28807 -2.7539,3.625 -0.35576,-0.24918 -0.99372,-0.5003 -1.41797,-0.5586 -0.11608,-0.0159 -0.18513,-0.0612 -0.30469,-0.0879 -0.88619,-0.34793 -2.28964,-0.88782 -3.7793,-1.45898 -0.22634,-0.11812 -0.36148,-0.15999 -0.58203,-0.22461 -0.22369,-0.0857 -0.40277,-0.1557 -0.6289,-0.24219 -0.0402,-0.0394 -0.11524,-0.033 -0.11524,-0.10351 0,-0.14666 -0.18039,-0.28178 -0.40039,-0.30078 -0.70714,-0.0611 -1.34953,-0.24372 -1.75977,-0.5 -0.0409,-0.0257 -0.0847,0.006 -0.13085,-0.0117 -0.57029,-0.21723 -0.78112,-0.29748 -1.25196,-0.47657 -0.14435,-0.21644 -0.28286,-0.37465 -0.28711,-0.24414 -0.005,0.15354 -0.19015,0.13555 -0.41015,-0.0391 -0.35327,-0.28039 -2.24673,-0.99212 -3.36133,-1.26367 -0.22,-0.0536 -0.57883,-0.14086 -0.79883,-0.19336 -1.23721,-0.29504 -1.83984,-0.9277 -1.83984,-1.93164 0,-0.57461 0.13958,-1.18451 0.31054,-1.35547 0.17097,-0.17097 0.37518,-0.66729 0.45508,-1.10352 0.08,-0.43603 0.17584,-0.82904 0.21094,-0.87304 0.0351,-0.044 0.0904,-0.18831 0.125,-0.32031 0.0346,-0.132 0.21833,-0.59907 0.4082,-1.03907 0.47778,-1.10723 2.39167,-6.16906 2.48047,-6.56054 0.0992,-0.4374 0.47116,-1.40418 1.00391,-2.60938 0.24516,-0.5546 0.44531,-1.20888 0.44531,-1.45508 0,-0.2462 0.17357,-0.62083 0.38477,-0.83203 0.21121,-0.2112 0.29124,-0.38281 0.17773,-0.38281 -0.11352,0 0.14691,-0.80178 0.58008,-1.78125 0.43317,-0.97948 0.83252,-2.02379 0.88672,-2.32031 0.0542,-0.29653 0.33978,-1.09781 0.63476,-1.7793 0.29497,-0.68149 0.53516,-1.407948 0.53516,-1.615234 0,-0.207306 0.1226,-0.514441 0.27148,-0.681641 0.14888,-0.1672 0.81694,-1.816084 1.48438,-3.664063 0.66745,-1.847958 1.40877,-3.81261 1.64844,-4.367187 0.23967,-0.554578 0.43554,-1.173895 0.43554,-1.376953 0,-0.203057 0.29189,-1.010322 0.64844,-1.792969 0.35654,-0.782647 1.06136,-2.538688 1.56641,-3.902344 0.50504,-1.363634 1.52611,-3.991885 2.26757,-5.839843 0.74167,-1.847979 1.37541,-3.527648 1.40821,-3.732422 0.11874,-0.740747 1.30372,-2.667969 1.64062,-2.667969 z m 23.28125,9.28125 c 0.37665,0 1.84129,0.562693 3.25586,1.25 4.15129,2.017031 6.26094,2.825656 8.8125,3.382813 1.32,0.288213 2.64947,0.660637 2.95508,0.826171 0.30561,0.165555 0.83764,0.300782 1.18164,0.300782 0.344,0 0.70455,0.127495 0.80078,0.283203 0.0962,0.155708 0.57245,0.355562 1.0586,0.445312 1.71186,0.316071 5.0506,1.22691 5.5996,1.527344 0.30561,0.167179 0.95307,0.305541 1.43946,0.306641 0.48639,0.0011 1.28732,0.210179 1.7793,0.466797 0.49177,0.256597 1.76903,0.62649 2.83789,0.820312 1.06865,0.193821 2.17768,0.469505 2.46484,0.613281 0.69428,0.34761 3.12897,0.972105 4.52344,1.160157 0.616,0.08305 1.33561,0.235885 1.59961,0.339843 0.264,0.103958 1.34439,0.304148 2.40039,0.445313 1.056,0.141165 4.87072,0.705989 8.47851,1.253906 8.75713,1.329936 14.69567,1.9375 18.91602,1.9375 2.57847,0 3.48251,0.10451 3.47851,0.400391 -0.0275,1.868607 -6.0373,28.056609 -7.39843,32.240229 -0.37224,1.144 -1.58064,4.38343 -2.68555,7.19922 -1.10491,2.816 -4.42173,11.38523 -7.37109,19.04102 l -5.36329,13.91992 -5.45117,9.91992 c -2.9978,5.456 -5.93936,10.60346 -6.53711,11.43946 -0.59776,0.836 -1.18138,1.51762 -1.29687,1.51562 -0.11549,-0.002 -0.49761,-0.34419 -0.84961,-0.76172 -0.352,-0.41753 -0.7705,-0.68239 -0.92969,-0.58789 -0.1592,0.0945 -0.20243,0.0321 -0.0957,-0.14062 0.10672,-0.17269 -0.59125,-1.06463 -1.55078,-1.98243 -0.95954,-0.91759 -1.74414,-1.80785 -1.74414,-1.97656 0,-0.1687 -0.114,-0.30664 -0.25391,-0.30664 -0.13992,0 -0.523,-0.64745 -0.84961,-1.43945 -0.3266,-0.792 -0.6969,-1.44141 -0.82226,-1.44141 -0.34322,0 -1.35025,-2.81811 -1.13282,-3.16992 0.10383,-0.16801 0.0524,-0.39051 -0.11523,-0.49414 -0.16767,-0.10363 -0.32501,-0.43766 -0.34961,-0.74219 -0.0463,-0.57341 -0.15318,-2.27862 -0.45703,-7.37109 -0.0977,-1.63794 -0.2666,-3.43794 -0.37696,-4 -0.11036,-0.56207 -0.24322,-1.31011 -0.29492,-1.66211 -0.0517,-0.352 -0.12345,-0.67475 -0.16015,-0.71875 -0.0367,-0.044 -0.10444,-0.22439 -0.14844,-0.40039 -0.044,-0.176 -0.1142,-0.39247 -0.1582,-0.48047 -0.044,-0.088 -0.11616,-0.30447 -0.16016,-0.48047 -0.044,-0.176 -0.1154,-0.42659 -0.1582,-0.55859 -0.0428,-0.132 -0.0597,-0.35293 -0.0371,-0.49024 0.0226,-0.13732 -0.20388,-0.71457 -0.50391,-1.28125 -0.30003,-0.56669 -0.59364,-1.31433 -0.65234,-1.66211 -0.0587,-0.34779 -0.32321,-0.7514 -0.58594,-0.89843 -0.26277,-0.14703 -0.40355,-0.38519 -0.31445,-0.5293 0.0891,-0.1441 -0.88637,-1.33353 -2.16602,-2.64258 -0.26397,-0.27004 -0.44326,-0.5053 -0.68164,-0.76953 -0.91719,-1.01665 -1.66669,-1.95863 -1.68359,-2.22852 -0.0595,-0.95065 -0.15653,-1.34095 -0.23633,-2.0371 l -0.1543,-2.27344 c 3.3e-4,3.5e-4 0.006,0.006 0.006,0.006 l -0.01,-0.0664 -0.002,-0.0234 -0.002,-0.002 -0.3086,-2.01758 -1.32812,-3.375 -1.69727,-4.05664 -1.94531,-2.66797 -3.19726,-2.77148 -2.73047,-2.46094 -4.08985,-1.89062 c 0,0 -0.0219,0.0357 -0.0254,0.041 -0.70954,-0.35941 -1.70044,-0.68418 -2.60742,-0.77148 -2.90922,-0.28001 -6.91377,-0.0765 -8.49023,0.43164 -2.61149,0.84178 -4.63867,1.77198 -4.63868,2.1289 0,0.1837 -0.0971,0.23881 -0.21484,0.1211 -0.11772,-0.11772 -0.44242,-0.0124 -0.7207,0.23437 -0.48295,0.42827 -4.48746,1.79297 -5.26172,1.79297 -0.20313,0 -0.54107,-0.27756 -0.75195,-0.61523 -0.3133,-0.50167 -0.24493,-0.97153 0.38086,-2.56836 0.4212,-1.07477 0.77581,-2.02187 0.78711,-2.10547 0.0111,-0.0836 0.0385,-0.2245 0.0605,-0.3125 0.022,-0.088 0.0669,-0.26644 0.0996,-0.39844 0.0327,-0.132 0.31636,-0.81748 0.63086,-1.52148 0.3145,-0.704 0.8371,-1.99891 1.16016,-2.87891 0.32306,-0.88 1.01318,-2.71608 1.53515,-4.08008 0.52196,-1.364 0.85641,-2.48137 0.74219,-2.48437 -0.11422,-0.003 -0.0188,-0.12652 0.21289,-0.27344 0.23171,-0.14693 0.46252,-0.46846 0.51172,-0.71484 0.0493,-0.24639 0.23761,-0.80805 0.41797,-1.24805 0.18036,-0.44 0.93421,-2.45647 1.67578,-4.48047 0.74157,-2.024 1.75412,-4.68792 2.25,-5.91992 0.87477,-2.1733 2.66609,-6.875519 2.74219,-7.19922 0.0539,-0.228984 0.47403,-1.331182 0.79297,-2.080078 0.14991,-0.352 1.08938,-2.72736 2.08789,-5.279297 2.69063,-6.877112 3.262,-8 4.07226,-8 z m -108.95117,0.240234 c 0.26696,-0.03678 0.43223,0.02446 0.56641,0.173829 0.36025,0.401031 2.0236,4.236711 2.80273,6.464843 0.57735,1.651095 3.62274,9.296486 4.22656,10.609375 0.25505,0.554599 0.46485,1.112841 0.46485,1.240235 0,0.127372 0.35227,1.041239 0.7832,2.031249 1.26339,2.90241 7.33063,18.36953 9.11719,23.24023 0.90375,2.464 1.73171,4.69499 1.83984,4.95899 0.10814,0.264 0.25101,0.79545 0.31641,1.17969 l 0.11914,0.69726 -1.78516,-0.62695 c -0.84491,-0.29699 -1.48122,-0.39698 -1.79883,-0.37695 l -0.0195,-0.0625 -3.02343,-1.6875 L 194.73441,127 194.6055,126.9688 c -0.0225,-0.005 -0.0282,-0.0318 -0.0508,-0.0352 -0.2608,-0.0394 -0.63343,-0.17116 -0.82813,-0.29297 -0.19471,-0.12159 -0.96578,-0.29867 -1.71289,-0.39257 -0.74711,-0.0939 -1.48412,-0.24825 -1.63867,-0.34375 -0.0189,-0.0117 -0.0854,0.0263 -0.11133,0.0195 l -0.12305,-0.0293 -2.52343,0.0781 c -0.75871,-0.0219 -1.99994,-0.001 -4.11719,0.0605 -1.03316,0.03 -1.84827,0.25041 -2.25195,0.60742 -0.34805,0.308 -0.84249,0.60456 -1.09961,0.66016 -0.80474,0.17393 -4.71932,4.62063 -5.60547,6.36719 -0.46519,0.91687 -1.0483,1.83438 -1.29492,2.03906 -0.24663,0.20468 -0.44727,0.60668 -0.44727,0.89453 0,0.28785 -0.34015,1.17034 -0.75586,1.96094 -0.41571,0.7906 -1.00187,2.22927 -1.30273,3.19727 -0.30086,0.96779 -0.67439,2.04839 -0.83008,2.40039 -0.39442,0.89172 -1.19621,4.47847 -1.43555,6.42187 -0.15149,1.23011 -0.43409,1.84954 -1.16797,2.56055 -2.8594,2.77051 -3.43165,3.44371 -4.62304,5.45898 -1.962,3.31878 -2.44598,5.14867 -2.35938,8.91797 0.10566,4.60005 0.0832,5.1657 -0.32617,8.17188 -0.33146,2.43406 -1.6644,6.61764 -2.24023,7.02929 -0.12309,0.088 -0.41229,0.51647 -0.64258,0.95313 -0.2303,0.43666 -0.75592,1.05869 -1.16797,1.38281 -0.41205,0.32411 -0.75,0.71314 -0.75,0.86328 0,0.15015 -0.72174,1.00341 -1.60547,1.89649 -0.88373,0.89308 -1.63939,1.62209 -1.67969,1.62109 -0.25426,-0.008 -10.71114,-17.78695 -12.22461,-20.78516 -0.40297,-0.79826 -3.14251,-7.28411 -6.08789,-14.41211 -2.94517,-7.12779 -6.26937,-15.13066 -7.38672,-17.7832 -2.99121,-7.10128 -3.64291,-9.12453 -6.83593,-21.27734 -3.50917,-13.35521 -4.53372,-17.808141 -4.3086,-18.705081 0.15746,-0.62734 0.40406,-0.681344 3.30078,-0.740234 4.64731,-0.09447 8.2341,-0.320665 10.74805,-0.675781 1.232,-0.174041 3.82572,-0.47092 5.76172,-0.660156 1.936,-0.189257 3.95052,-0.477303 4.47852,-0.640626 0.52779,-0.163301 2.328,-0.512181 4,-0.77539 4.61118,-0.72591 8.36884,-1.455203 8.76367,-1.699219 0.19473,-0.120352 1.00214,-0.321896 1.79492,-0.449219 3.58204,-0.575261 10.45869,-2.458975 14.61523,-4.003906 1.20225,-0.446822 2.83496,-1.002366 3.62696,-1.232422 2.38943,-0.694111 6.20949,-2.135703 6.7207,-2.537109 0.70116,-0.550579 2.18022,-1.140625 2.85937,-1.140625 0.3245,0 1.21716,-0.280673 1.98438,-0.625 0.53973,-0.242229 0.90882,-0.377278 1.17578,-0.414063 z m 182.50977,14.892579 c 0.13791,0.02451 0.29668,0.114738 0.47851,0.265624 0.55587,0.461332 0.48531,1.502274 -0.34375,5.080078 -0.26508,1.144 -0.48814,2.60513 -0.49414,3.24609 -0.0171,1.7734 -2.54038,13.73001 -3.70508,17.55469 -0.4066,1.33527 -1.28346,4.93639 -1.62109,6.66016 -0.0798,0.40749 -0.50107,1.83114 -0.93555,3.16211 -0.43447,1.33098 -0.78906,2.81174 -0.78906,3.29101 0,0.47928 -0.13282,1.28857 -0.29492,1.79883 -0.16209,0.51026 -0.67448,2.2248 -1.13867,3.80859 -0.46418,1.584 -0.96804,3.16754 -1.11914,3.51954 -0.1511,0.352 -0.71977,2.04623 -1.26368,3.76562 -0.54392,1.71939 -1.6637,4.52763 -2.49023,6.24024 -0.82652,1.7124 -1.52278,3.18543 -1.54688,3.27343 -0.26354,0.96267 -2.42623,5.5014 -2.74414,5.75977 -0.16034,0.13031 -0.57791,1.17121 -0.77148,1.91992 -0.15581,0.60267 -6.16724,12.81022 -6.53906,13.2793 -0.13981,0.17639 -0.36283,0.68109 -0.4961,1.12109 -0.13326,0.44 -0.34308,0.87294 -0.46679,0.96094 -0.30698,0.21837 -2.46678,4.46638 -2.72461,5.35937 -0.11434,0.396 -0.34172,0.72071 -0.50586,0.72071 -0.16414,0 -0.29883,0.21451 -0.29883,0.47851 0,0.264 -0.14431,0.48047 -0.32031,0.48047 -0.176,0 -0.31836,0.16158 -0.31836,0.35742 0,0.37377 -1.05192,1.7536 -2.80078,3.67578 -0.572,0.62868 -1.04102,1.21138 -1.04102,1.29688 0,0.0855 -0.2056,0.36185 -0.45703,0.61328 -0.52789,0.52788 -0.82227,0.58428 -0.82227,0.1582 0,-0.16414 -0.28536,-0.3891 -0.63476,-0.5 -0.58792,-0.1866 -0.53617,-0.33721 0.70508,-2.02148 0.73768,-1.00097 1.59345,-2.09012 1.90039,-2.42188 0.30694,-0.33177 0.80048,-1.12569 1.09765,-1.76171 0.29718,-0.63624 1.2613,-2.38096 2.14258,-3.87696 2.57051,-4.36331 5.80636,-10.75869 7.37305,-14.57226 0.79847,-1.94371 2.03811,-4.79715 2.7539,-6.33985 0.71601,-1.54271 1.30274,-2.93852 1.30274,-3.10156 0,-0.16303 1.27725,-3.35923 2.83984,-7.10156 2.44607,-5.85855 4.2419,-10.89843 6.58203,-18.48438 0.29863,-0.968 1.10931,-3.59722 1.80078,-5.84179 0.69168,-2.24478 1.25782,-4.29603 1.25782,-4.56055 0,-0.26451 0.8491,-3.75707 1.88867,-7.75977 1.03958,-4.00249 2.19003,-9.00539 2.55664,-11.11718 0.3666,-2.112 0.73004,-4.15118 0.80664,-4.531254 0.0766,-0.380059 0.2379,-1.353999 0.35938,-2.164062 0.18691,-1.246418 0.42416,-1.764982 0.83789,-1.691406 z m -254.72071,0.24414 c 0.35226,0.03329 0.71238,0.274198 0.86914,0.703125 0.14471,0.396 0.72694,3.096123 1.29297,5.999997 1.49706,7.68058 5.30741,21.25922 9.16016,32.63868 2.51059,7.4152 3.85027,10.85634 6.47461,16.64062 1.39735,3.08 2.64432,5.96039 2.77148,6.40039 0.12715,0.44 0.63964,1.59255 1.13867,2.56055 0.49903,0.968 1.86804,3.91859 3.04297,6.55859 1.90843,4.28812 2.93092,6.32118 5.06836,10.08008 0.35028,0.616 0.83782,1.47992 1.08399,1.91992 0.24617,0.44 0.86587,1.44824 1.37695,2.24024 0.51107,0.79179 1.52614,2.49047 2.25586,3.77343 0.72973,1.28296 1.81584,2.91522 2.41211,3.62891 1.2583,1.50608 1.31629,1.85665 0.43945,2.60742 -0.74451,0.63747 -0.95703,0.68319 -0.95703,0.21094 0,-0.10113 -0.10686,-0.0554 -0.17383,-0.0762 l -3.09961,-3.91602 -1.66601,-2.91601 c -0.042,-0.091 -0.0665,-0.12093 -0.11719,-0.20313 l -6.2793,-10.99023 -5.85547,-10.91407 -1.05078,-2.32422 c -0.008,-0.0172 -0.0126,-0.0321 -0.0215,-0.0469 l -3.41797,-7.56445 -3.08594,-8.06641 -0.002,-0.006 c -0.002,-0.0927 -0.0259,-0.15717 -0.0684,-0.20508 l -1.10547,-3.31836 c -0.0603,-0.22006 -0.15291,-0.46087 -0.18359,-0.62304 -0.0226,-0.11942 -0.0948,-0.20332 -0.13477,-0.33008 l -0.40625,-1.21875 c 0.0154,-0.009 -0.0344,-0.0659 -0.01,-0.0664 0.0234,-4.1e-4 -0.0401,-0.0388 -0.0273,-0.0449 l -0.0547,-0.16406 -1.75,-3.7168 c -0.009,-0.0692 -0.016,-0.0758 -0.0254,-0.15039 -0.007,-0.0568 -0.0643,-0.0546 -0.0859,-0.10352 l -2.96289,-9.60156 -2.67969,-11.92773 -0.93164,-3.00977 c -0.004,-0.0116 -0.0139,-0.0666 -0.0176,-0.0762 -0.0348,-0.088 -0.0469,-0.26435 -0.0273,-0.39258 0.0196,-0.12823 -0.18699,-1.06431 -0.45899,-2.08008 -0.51039,-1.90583 -0.68446,-3.0851 -0.92773,-6.2539 -0.0779,-1.01516 -0.23193,-1.990186 -0.3418,-2.167971 -0.30686,-0.496461 -0.48336,-2.318552 -0.28516,-2.945312 0.12716,-0.402114 0.47197,-0.57626 0.82422,-0.542969 z m 137.39453,33.775392 c 0.68478,-0.16829 1.6854,0.0945 3.1504,0.75195 0.72837,0.32697 2.01371,0.84543 2.85546,1.15235 0.84175,0.30691 1.60662,0.68017 1.69922,0.83007 0.0926,0.14989 0.48352,0.27721 0.86914,0.28321 0.38561,0.006 0.98063,0.22206 1.32227,0.48047 0.34164,0.2584 0.8856,0.46875 1.20898,0.46875 0.65009,0 4.41016,1.81345 4.41016,2.12695 0,0.34266 -2.46637,7.24621 -3.15625,8.83398 -0.36324,0.836 -0.5766,1.51953 -0.47461,1.51953 0.10198,0 -0.0478,0.35526 -0.33203,0.78907 -0.28424,0.43381 -0.51758,0.9508 -0.51758,1.15039 0,0.19959 -0.20726,0.81649 -0.46094,1.37109 -1.16972,2.5573 -3.05859,7.20126 -3.05859,7.51953 0,0.19437 -0.28017,0.81509 -0.62305,1.37891 -0.34287,0.56382 -0.55003,1.14463 -0.46094,1.28906 0.0893,0.14444 10e-4,0.26172 -0.19531,0.26172 -0.19677,0 -0.28469,0.11905 -0.19531,0.26367 0.0894,0.14462 -0.0386,0.64776 -0.2832,1.11914 -0.24456,0.47138 -0.37482,0.85742 -0.29102,0.85742 0.0838,0 -0.0264,0.32471 -0.24414,0.72071 -0.21773,0.396 -0.42684,0.90517 -0.46484,1.13281 -0.038,0.22763 -0.4423,1.12763 -0.89844,2 -0.45615,0.87236 -0.7524,1.58594 -0.6582,1.58594 0.0942,0 -0.0762,0.46901 -0.37891,1.04101 -0.30265,0.572 -0.84984,1.89122 -1.21484,2.9336 -0.73772,2.10662 -1.10167,2.42012 -1.70313,1.45703 -0.43253,-0.69259 -0.0306,-2.37956 1.08008,-4.52735 0.27486,-0.53153 0.5694,-1.27747 0.6543,-1.65625 0.0849,-0.37879 0.18847,-0.83181 0.23046,-1.00781 0.0422,-0.176 0.24584,-0.62539 0.45118,-0.99804 0.0371,-0.0674 -5.9e-4,-0.0946 0.0273,-0.16211 l 0.0918,0.0976 c 0.10628,-0.31652 3.66319,-9.43831 6.0332,-15.51367 0.12959,-0.27179 0.32295,-0.5983 0.29688,-0.71484 -0.005,-0.0213 0.0767,-0.21357 0.082,-0.25586 0.51435,-1.31839 1.30438,-3.3446 1.45117,-3.72071 0.15847,-0.34113 0.304,-0.72162 0.45508,-1.01562 0.53975,-1.05043 0.68488,-1.42031 0.46875,-1.44141 -0.072,-0.007 -0.18281,0.024 -0.33399,0.082 -0.25537,0.098 -0.71123,0.84944 -1.01172,1.66993 -0.3005,0.82027 -0.94911,2.46434 -1.4414,3.65234 -0.26166,0.63143 -0.25,0.75252 -0.37696,1.14844 l -0.7246,1.79297 c -0.006,0.0195 -0.025,0.0485 -0.0254,0.0644 l -1.13867,2.82812 c -0.13384,-0.0595 -0.25035,-0.0632 -0.22851,0.0625 0.0252,0.14509 0.0117,0.37191 -0.0312,0.50391 -0.0282,0.0869 -0.0621,0.20452 -0.0957,0.31641 l -0.23437,0.58007 c -0.13275,0.3202 -0.31246,0.74279 -0.62891,1.42383 -0.36414,0.78366 -0.59914,1.46022 -0.66211,1.78125 l -0.0976,0.24024 c -0.0136,0.20371 -0.12291,0.3789 -0.27149,0.3789 -0.15705,0 -0.20281,0.13304 -0.10156,0.29688 0.10126,0.16384 0.0353,0.38963 -0.14648,0.50195 -0.0767,0.0474 -0.0215,0.15121 -0.0488,0.23242 l -0.2461,0.61133 c -0.18818,-0.002 -0.3457,0.11336 -0.3457,0.39453 0,0.37238 -1.26246,3.57411 -2.29492,5.81641 -0.16554,0.35953 -0.33746,0.89407 -0.38086,1.18945 -0.0434,0.29538 -0.17836,0.63734 -0.30078,0.75977 -0.12243,0.12243 -0.22266,0.47155 -0.22266,0.77539 0,1.0508 -1.31468,1.03409 -1.54297,-0.0195 -0.0572,-0.264 -0.2299,-0.52468 -0.38281,-0.58008 -0.1529,-0.0554 -0.20539,-0.2896 -0.11719,-0.51953 0.0882,-0.22994 -0.0409,-0.61706 -0.28515,-0.86133 -0.24424,-0.24426 -0.38335,-0.62337 -0.31055,-0.8418 0.0728,-0.21843 -0.0335,-0.39648 -0.23437,-0.39648 -0.20108,0 -0.27479,-0.14431 -0.16602,-0.32031 0.10875,-0.176 0.0692,-0.32032 -0.0879,-0.32032 -0.15705,0 -0.28897,-0.18039 -0.29297,-0.40039 -0.004,-0.22 -0.26741,-0.97589 -0.58398,-1.67968 -0.31657,-0.704 -0.55239,-1.38754 -0.5254,-1.51954 0.0272,-0.132 -0.11888,-0.24023 -0.32421,-0.24023 -0.20538,0 -0.27792,-0.0951 -0.16211,-0.21094 0.11581,-0.1158 0.0495,-0.40247 -0.14649,-0.63867 -0.19603,-0.23619 -0.25817,-0.42969 -0.13867,-0.42969 0.1195,0 -0.0282,-0.46901 -0.32812,-1.04101 -1.2112,-2.3098 -1.41097,-2.7553 -1.41797,-3.16797 -0.004,-0.23685 -0.31618,-1.0791 -0.69336,-1.8711 -0.37718,-0.79179 -0.71506,-1.54768 -0.75196,-1.67968 -0.0369,-0.132 -0.10097,-0.31239 -0.14257,-0.40039 -0.22051,-0.46698 -0.0566,-1.41948 0.44336,-2.56055 0.30846,-0.704 0.9164,-2.21538 1.3496,-3.35938 0.43342,-1.14379 1.51121,-3.76626 2.39454,-5.82812 0.88332,-2.06186 1.67306,-4.12327 1.75586,-4.58008 0.0828,-0.45681 0.43495,-1.35974 0.78125,-2.00586 0.3463,-0.64612 0.71651,-1.63552 0.82226,-2.19922 0.20011,-1.06665 0.56738,-1.6657 1.25195,-1.83398 z m -21.44531,0.875 c 0.51827,0.19336 0.78091,0.81788 1.27149,2.05273 0.47197,1.188 1.20174,2.74995 1.62109,3.47266 0.41935,0.72272 1.04636,2.0366 1.39453,2.91992 0.34818,0.88332 0.92382,2.2359 1.27734,3.00586 0.35372,0.76996 1.17199,2.69725 1.81836,4.28125 0.64658,1.584 1.43073,3.45616 1.74219,4.16016 0.31145,0.704 0.80786,1.92675 1.10352,2.71875 0.29567,0.792 1.01214,2.592 1.59179,4 0.57966,1.408 1.44694,3.56878 1.92774,4.80078 0.4808,1.232 1.27794,3.17631 1.77148,4.32031 0.49353,1.144 1.07392,2.65538 1.28907,3.35938 0.21515,0.70379 0.66152,1.72857 0.99218,2.27734 0.33065,0.54877 0.59961,1.23034 0.59961,1.51367 0,0.28333 0.35566,1.27327 0.78906,2.20117 0.4336,0.9279 1.31601,3.05652 1.96094,4.72852 0.64494,1.672 1.39797,3.472 1.67383,4 0.27586,0.528 0.53497,1.15692 0.57617,1.39844 0.10473,0.61414 1.43781,3.68662 1.6836,3.88086 0.11136,0.088 0.47269,0.95192 0.80273,1.91992 0.62392,1.82996 1.05875,2.90183 2.26953,5.59961 0.39494,0.88 1.30096,3.04078 2.01367,4.80078 3.94378,9.7388 5.39443,13.12573 6.97266,16.26953 0.42784,0.85224 0.7793,1.74972 0.7793,1.99414 0,0.24443 0.44972,1.41825 1,2.60937 1.53626,3.32597 1.77932,3.88482 2.95703,6.80665 0.603,1.49579 1.48373,3.58462 1.95703,4.64062 0.47329,1.056 1.05421,2.35091 1.29101,2.87891 1.2263,2.73168 2.50743,5.92929 2.91797,7.28125 0.25386,0.836 0.58427,1.51953 0.73438,1.51953 0.1501,0 0.37053,0.39686 0.49023,0.88086 0.11969,0.484 0.6973,1.88714 1.28321,3.11914 0.58591,1.232 1.35788,3.032 1.71679,4 0.3589,0.968 1.29369,3.27114 2.07618,5.11914 1.25877,2.97335 3.61577,8.61853 4.34179,10.40039 0.14342,0.352 0.59171,1.36023 0.9961,2.24023 1.17472,2.55676 2.87695,6.67303 2.87695,6.95508 0,0.14234 0.41927,1.15567 0.92969,2.25196 1.81227,3.89272 2.59179,5.69375 2.59179,5.99023 0,0.16522 0.2108,0.77359 0.46875,1.35156 0.25795,0.57797 1.42998,3.35501 2.60547,6.16992 1.17549,2.81512 2.25457,5.33473 2.39844,5.59961 0.14387,0.26488 0.99113,2.32297 1.88086,4.57422 0.88973,2.25126 1.7457,4.33989 1.90234,4.64063 0.6112,1.17351 2.26367,5.21005 2.26367,5.52929 0,0.18553 0.34491,1.08513 0.76758,1.99805 0.42267,0.91292 1.07827,2.45192 1.45703,3.41992 1.19636,3.05754 3.25331,7.91706 4.85743,11.47657 0.50463,1.11955 0.91796,2.15911 0.91796,2.31054 0,0.15143 0.34646,1.03408 0.76954,1.96289 0.42309,0.92881 1.13733,2.49866 1.58789,3.48633 0.45057,0.98767 0.95381,2.35473 1.11718,3.03906 0.16336,0.68433 0.5275,2.10316 0.81055,3.15235 0.28309,1.04919 0.44829,2.12958 0.36719,2.40039 -0.0812,0.27081 -0.2215,0.92252 -0.3125,1.44922 -0.091,0.52669 -0.31227,1.0064 -0.49219,1.0664 -0.17991,0.06 -0.32908,0.27708 -0.33008,0.48242 -0.003,0.56896 -2.01234,1.81446 -2.92773,1.81446 -0.44583,0 -1.06352,0.27907 -1.37305,0.62109 -0.30952,0.34203 -1.01656,0.71678 -1.57031,0.83203 -0.55375,0.11526 -1.33056,0.41349 -1.72656,0.66406 -0.396,0.25083 -0.72071,0.37565 -0.72071,0.27735 0,-0.0983 -0.32275,10e-4 -0.71875,0.21875 -0.396,0.21773 -0.93717,0.45028 -1.20117,0.51758 -1.145,0.29207 -4.37453,0.35808 -4.96875,0.10156 -0.35712,-0.15416 -1.06518,-1.05225 -1.57422,-1.99609 -0.50903,-0.94406 -1.01885,-1.78896 -1.13281,-1.87696 -0.11397,-0.088 -0.43907,-0.73545 -0.7207,-1.43945 -0.28163,-0.704 -0.76658,-1.85655 -1.07813,-2.56055 -0.31156,-0.704 -0.58633,-1.35145 -0.61133,-1.43945 -0.025,-0.088 -0.15819,-0.55702 -0.29492,-1.04102 -0.13673,-0.484 -0.35288,-0.8789 -0.48047,-0.8789 -0.12758,0 -0.23167,-0.18039 -0.23242,-0.40039 -7.4e-4,-0.22 -0.33359,-1.12 -0.74023,-2 -0.40664,-0.88 -0.77672,-1.76569 -0.82032,-1.9668 -0.0436,-0.20111 -0.48994,-1.27955 -0.99218,-2.39844 -0.50225,-1.11889 -0.92506,-2.10731 -0.93946,-2.19531 -0.14999,-0.91348 -0.58432,-1.91992 -0.82812,-1.91992 -0.16732,0 -0.21424,-0.14431 -0.10547,-0.32031 0.10877,-0.176 0.0455,-0.32032 -0.14062,-0.32032 -0.18639,0 -0.31601,-0.10823 -0.28711,-0.24023 0.10454,-0.47795 -0.44825,-2 -0.72657,-2 -0.15695,0 -0.25811,-0.10628 -0.22461,-0.23828 0.11342,-0.44656 -0.43085,-2.32031 -0.67382,-2.32032 -0.13268,10e-6 -0.24024,-0.19492 -0.24024,-0.43164 0,-0.6798 -3.01937,-7.70365 -3.42383,-7.96484 -0.20023,-0.1293 -0.25175,-0.23528 -0.11523,-0.23828 0.13652,-0.003 0.0258,-0.43673 -0.24609,-0.96289 -0.27208,-0.52615 -0.4827,-0.99326 -0.4668,-1.03906 0.0159,-0.0458 -0.1379,-0.51497 -0.34375,-1.04297 -0.20585,-0.528 -0.40963,-1.10525 -0.45313,-1.28125 -0.0435,-0.176 -0.26795,-0.7513 -0.49804,-1.2793 -0.23009,-0.528 -0.45576,-1.14522 -0.50196,-1.37109 -0.0463,-0.22586 -0.38221,-0.98155 -0.74609,-1.67969 -0.36389,-0.69813 -0.58749,-1.26953 -0.49609,-1.26953 0.0914,0 -0.0144,-0.32491 -0.23438,-0.7207 -0.21996,-0.396 -0.41495,-0.79091 -0.43555,-0.87891 -0.26608,-1.13738 -0.58005,-1.91992 -0.76953,-1.91992 -0.12891,0 -0.41226,-0.7917 -0.6289,-1.75977 -0.21665,-0.96806 -0.59296,-1.96014 -0.83594,-2.20312 -0.24298,-0.24299 -0.35114,-0.52973 -0.24219,-0.63868 0.10895,-0.109 0.004,-0.19921 -0.23047,-0.19921 -0.23471,0 -0.33065,-0.0951 -0.21484,-0.21094 0.11581,-0.1158 0.0495,-0.40247 -0.14649,-0.63867 -0.19606,-0.23619 -0.26223,-0.42969 -0.14648,-0.42969 0.11574,0 0.0305,-0.3247 -0.18945,-0.7207 -0.21996,-0.396 -0.41088,-0.79091 -0.42578,-0.87891 -0.19804,-1.17053 -1.46531,-4.16016 -1.76368,-4.16016 -0.12727,0 -0.23184,-0.3247 -0.23242,-0.7207 -5.7e-4,-0.396 -0.2577,-1.296 -0.57031,-2 -0.31261,-0.704 -0.54673,-1.38753 -0.51953,-1.51953 0.0272,-0.132 -0.10267,-0.24024 -0.28906,-0.24024 -0.18641,0 -0.2494,-0.14431 -0.14063,-0.32031 0.10877,-0.176 0.0366,-0.32031 -0.16016,-0.32031 -0.1968,0 -0.26892,-0.14431 -0.16015,-0.32031 0.10877,-0.176 0.0366,-0.31836 -0.16016,-0.31836 -0.19726,0 -0.28471,-0.11905 -0.19531,-0.26367 0.0894,-0.14462 -0.0367,-0.64972 -0.28125,-1.1211 -0.24452,-0.47138 -0.34618,-0.85833 -0.22461,-0.86133 0.12156,-0.003 0.0386,-0.12143 -0.18555,-0.26367 -0.22412,-0.14224 -0.47664,-0.57201 -0.56054,-0.95508 -0.0839,-0.38306 -0.21693,-0.98523 -0.29493,-1.33789 -0.078,-0.35266 -0.25359,-0.81972 -0.39062,-1.03906 -0.13703,-0.21934 -0.27514,-0.54275 -0.30664,-0.71875 -0.0315,-0.176 -0.19891,-0.68109 -0.37109,-1.12109 -0.17239,-0.44 -0.33749,-0.94314 -0.36719,-1.11914 -0.0297,-0.176 -0.26592,-0.64502 -0.52539,-1.04102 -0.25949,-0.396 -0.38376,-0.71875 -0.27735,-0.71875 0.10641,0 -0.0921,-0.46922 -0.4414,-1.04101 -0.34925,-0.572 -0.78078,-1.54416 -0.95899,-2.16016 -0.51301,-1.77336 -2.67842,-6.85841 -3.01172,-7.07422 -0.16631,-0.10767 -0.29039,-0.28806 -0.27539,-0.40039 0.044,-0.32871 -0.0758,-0.74086 -0.55859,-1.90625 -0.20526,-0.49546 -0.37305,-1.10684 -0.37305,-1.35938 0,-0.25254 -0.11341,-0.45898 -0.25195,-0.45898 -0.13855,0 -0.27353,-0.25255 -0.29883,-0.56055 -0.0252,-0.308 -0.44051,-1.42251 -0.92383,-2.47851 -0.48332,-1.056 -0.85336,-2.02816 -0.82226,-2.16016 0.0311,-0.132 -0.0968,-0.24023 -0.28321,-0.24023 -0.18641,0 -0.24939,-0.14432 -0.14062,-0.32032 0.10877,-0.176 0.0366,-0.32031 -0.16016,-0.32031 -0.19679,0 -0.25765,-0.15979 -0.13672,-0.35547 0.12094,-0.19567 0.0525,-0.45935 -0.15234,-0.58593 -0.20481,-0.12658 -0.44566,-0.63351 -0.53516,-1.12696 -0.0895,-0.49346 -0.40154,-1.34624 -0.69335,-1.89453 -0.29202,-0.54829 -0.49663,-1.17648 -0.45313,-1.39648 0.0435,-0.22 -0.0793,-0.40039 -0.27344,-0.40039 -0.19414,0 -0.26502,-0.14432 -0.15625,-0.32032 0.10877,-0.176 0.0386,-0.32031 -0.1582,-0.32031 -0.1968,0 -0.2659,-0.15024 -0.15234,-0.33398 0.11355,-0.18374 -0.004,-0.65408 -0.25977,-1.04493 -0.25609,-0.39063 -0.56634,-1.17667 -0.69141,-1.74609 -0.12507,-0.56942 -0.38482,-1.03516 -0.57617,-1.03515 -0.19135,0 -0.25253,-0.0932 -0.13672,-0.20899 0.11581,-0.1158 0.0495,-0.40442 -0.14648,-0.64062 -0.196,-0.23619 -0.26251,-0.42969 -0.14844,-0.42969 0.11407,0 -0.0427,-0.46902 -0.34765,-1.04102 -0.30514,-0.572 -0.57436,-1.11122 -0.59766,-1.19922 -0.0233,-0.088 -0.25929,-0.66329 -0.52539,-1.27929 -0.83935,-1.94297 -1.00142,-2.3941 -0.94922,-2.64063 0.0279,-0.132 -0.11694,-0.24023 -0.32227,-0.24023 -0.20534,0 -0.28261,-0.0924 -0.16992,-0.20508 0.1127,-0.1127 0.005,-0.57976 -0.24023,-1.03906 -0.43419,-0.81213 -0.83171,-1.78494 -0.99414,-2.43555 -0.0439,-0.176 -0.26053,-0.7513 -0.48243,-1.2793 -0.22169,-0.528 -0.37996,-1.06917 -0.35156,-1.20117 0.0284,-0.132 -0.0935,-0.24023 -0.26953,-0.24023 -0.176,0 -0.30205,-0.10824 -0.28125,-0.24024 0.0208,-0.132 0.002,-0.34651 -0.041,-0.47851 -0.0428,-0.132 -0.11421,-0.38455 -0.15821,-0.56055 -0.044,-0.176 -0.10708,-0.35639 -0.14258,-0.40039 -0.0355,-0.044 -0.11347,-0.29655 -0.17187,-0.56055 -0.0584,-0.264 -0.36098,-1.05576 -0.67383,-1.75976 -0.31285,-0.704 -0.54246,-1.38753 -0.50976,-1.51953 0.0327,-0.132 -0.0857,-0.24024 -0.26172,-0.24024 -0.176,0 -0.29548,-0.10823 -0.26758,-0.24023 0.0648,-0.30619 -0.29816,-1.28553 -0.86914,-2.35352 -0.24556,-0.4593 -0.35294,-0.92831 -0.24024,-1.04101 0.11269,-0.1127 0.0608,-0.20508 -0.11523,-0.20508 -0.176,0 -0.32413,-0.18039 -0.32813,-0.40039 -0.004,-0.22 -0.26484,-0.97569 -0.58007,-1.67969 -0.31523,-0.704 -0.61597,-1.48941 -0.66797,-1.74609 -0.17749,-0.87667 -1.18733,-2.89258 -1.44922,-2.89258 -0.14373,0 -0.18916,-0.18781 -0.10156,-0.41602 0.0876,-0.2282 -0.20529,-1.10039 -0.65039,-1.9375 -0.44509,-0.83711 -0.81055,-1.72969 -0.81055,-1.98437 0,-0.25469 -0.11238,-0.46289 -0.25,-0.46289 -0.13761,0 -0.28111,-0.38719 -0.32031,-0.86133 -0.0392,-0.47415 -0.25157,-0.97608 -0.47071,-1.11524 -0.21917,-0.13917 -0.27269,-0.25481 -0.11914,-0.25781 0.15359,-0.003 0.12659,-0.19054 -0.0605,-0.41601 -0.18712,-0.22547 -0.41441,-0.81286 -0.50391,-1.30665 -0.0895,-0.49358 -0.29637,-1.06674 -0.46094,-1.27148 -0.16456,-0.20474 -0.39918,-0.84011 -0.52148,-1.41211 -0.12231,-0.572 -0.36471,-1.03906 -0.53711,-1.03906 -0.17236,0 -0.23016,-0.13499 -0.12891,-0.29883 0.10126,-0.16384 0.0534,-0.37836 -0.10547,-0.47656 -0.15892,-0.0982 -0.38212,-0.68283 -0.49804,-1.30078 -0.11593,-0.61794 -0.35674,-1.125 -0.53516,-1.125 -0.17845,0 -0.25397,-0.11284 -0.16797,-0.25196 0.086,-0.13912 -0.0397,-0.68029 -0.2793,-1.20117 -1.00831,-2.19274 -1.72331,-3.97546 -2.55664,-6.38672 -0.4866,-1.408 -1.0153,-2.72569 -1.17578,-2.92773 -0.16049,-0.20204 -0.35419,-0.68626 -0.42969,-1.07813 -0.0753,-0.39186 -0.35706,-1.05099 -0.62695,-1.46289 -0.26988,-0.4119 -0.49023,-0.90199 -0.49023,-1.08984 0,-0.18784 -0.23751,-0.8769 -0.52735,-1.53125 -0.28985,-0.65435 -0.56056,-1.33377 -0.60156,-1.50977 -0.20708,-0.88858 -1.89111,-5.55353 -2.28125,-6.32031 -0.24636,-0.484 -0.3543,-0.87891 -0.24023,-0.87891 0.11407,10e-6 0.0476,-0.19349 -0.14844,-0.42968 -0.19605,-0.2362 -0.26209,-0.52483 -0.14649,-0.64063 0.11581,-0.11586 0.0432,-0.21094 -0.1621,-0.21093 -0.20533,0 -0.37305,-0.25552 -0.37305,-0.56836 0,-0.31284 -0.22407,-0.88814 -0.49805,-1.2793 -0.27381,-0.39116 -0.40078,-0.71094 -0.28125,-0.71094 0.11953,0 0.0574,-0.1935 -0.13867,-0.42969 -0.19646,-0.2362 -0.28296,-0.50415 -0.19336,-0.59375 0.0896,-0.0896 -0.0564,-0.57965 -0.32226,-1.08984 -0.26606,-0.51019 -0.48338,-1.10833 -0.48438,-1.32812 -10e-4,-0.22 -0.15541,-0.39844 -0.3418,-0.39844 -0.18641,0 -0.24939,-0.14432 -0.14062,-0.32032 0.10877,-0.17579 0.0366,-0.32031 -0.16016,-0.32031 -0.1968,0 -0.26892,-0.14431 -0.16015,-0.32031 0.10873,-0.176 0.0865,-0.5007 -0.0508,-0.7207 -0.13729,-0.22 -0.29395,-0.68213 -0.34765,-1.02735 -0.0537,-0.34522 -0.38305,-1.10842 -0.73047,-1.69726 -0.34746,-0.58884 -0.6309,-1.34227 -0.6309,-1.67383 0,-0.33155 -0.13833,-0.68895 -0.30664,-0.79297 -0.1683,-0.10403 -0.23103,-0.38152 -0.14063,-0.61719 0.0904,-0.23567 -0.0707,-0.66253 -0.35742,-0.94922 C 222.90859,160.23479 222.77435,160 222.89648,160 c 0.12212,0 0.0433,-0.21647 -0.17578,-0.48047 -0.2191,-0.264 -0.29125,-0.48047 -0.16015,-0.48047 0.1311,0 0.0589,-0.21451 -0.16016,-0.47851 -0.2191,-0.264 -0.29126,-0.48047 -0.16016,-0.48047 0.1311,0 0.0769,-0.1935 -0.11914,-0.42969 -0.19605,-0.2362 -0.26034,-0.52482 -0.14453,-0.64062 0.11581,-0.11586 0.0179,-0.20899 -0.21679,-0.20899 -0.2351,0 -0.33688,-0.0909 -0.22657,-0.20117 0.11032,-0.11031 -0.004,-0.59671 -0.2539,-1.08008 -0.2499,-0.48337 -0.36423,-0.96781 -0.25391,-1.07812 0.11031,-0.11027 0.0243,-0.20118 -0.19141,-0.20118 -0.21612,0 -0.30828,-0.13498 -0.20703,-0.29882 0.10126,-0.16384 0.0353,-0.38964 -0.14648,-0.50196 -0.18174,-0.11232 -0.25882,-0.32095 -0.16992,-0.46484 0.0889,-0.1439 -0.0433,-0.43377 -0.29493,-0.64258 -0.25135,-0.20881 -0.38632,-0.56494 -0.29882,-0.79297 0.0875,-0.22803 -0.13518,-0.93708 -0.49414,-1.57617 -0.35896,-0.6391 -0.57778,-1.16211 -0.48828,-1.16211 0.0893,0 -0.0918,-0.46901 -0.40235,-1.04101 -0.31053,-0.572 -0.56917,-1.18338 -0.57617,-1.35938 -0.007,-0.176 -0.13144,-0.50823 -0.27539,-0.73828 -0.14395,-0.23006 -0.30216,-0.78637 -0.35156,-1.23633 -0.0494,-0.44996 -0.26101,-0.92509 -0.47071,-1.05469 -0.20971,-0.12961 -0.421,-0.43721 -0.4707,-0.68359 -0.0497,-0.24639 -0.17158,-0.66373 -0.27148,-0.92773 -0.0999,-0.264 -0.27827,-0.91146 -0.39454,-1.43946 -0.19814,-0.89975 -0.83826,-2.54953 -1.43945,-3.70898 -0.38071,-0.73423 -0.071,-1.00742 2.07813,-1.8418 1.056,-0.40999 2.71168,-1.07886 3.67968,-1.48437 0.968,-0.40552 2.26486,-0.89766 2.88086,-1.09375 0.616,-0.19609 2.01493,-0.64338 3.10938,-0.99414 1.51651,-0.48603 2.29032,-0.72266 2.80859,-0.5293 z m -0.0449,5.01172 c -0.2493,0 0.0756,0.91928 0.84961,2.40625 0.68885,1.32347 1.26194,2.47394 1.27344,2.55664 0.0288,0.20724 0.23675,0.78722 0.6875,1.91797 0.21048,0.528 0.40554,1.03114 0.43554,1.11914 0.11144,0.32745 0.59442,1.49827 1.44922,3.51953 0.48381,1.144 0.97815,2.40478 1.09766,2.80078 0.1195,0.396 0.35148,0.7207 0.51562,0.7207 0.16415,0 0.275,0.10824 0.2461,0.24024 -0.0961,0.43926 0.46967,2.14567 1.06445,3.20898 0.32295,0.57736 0.58789,1.17794 0.58789,1.33399 0,0.15606 0.2822,0.94504 0.62891,1.7539 0.34672,0.80885 0.64927,1.57729 0.67187,1.70703 0.0226,0.12973 0.17824,0.49176 0.34571,0.80469 0.10518,0.19652 0.25297,0.29963 0.39843,0.3457 l 0.16992,0.4375 c -0.14945,0.15869 -0.14392,0.40148 0.0918,0.82618 0.21387,0.38532 0.35771,0.8094 0.32031,0.9414 -0.0304,0.10747 0.15659,0.16501 0.35157,0.19531 l 0.18164,0.47071 c -0.0965,0.0455 -0.26209,0.0643 -0.22852,0.14258 0.0587,0.13692 0.38771,1.00084 0.73047,1.91992 0.2876,0.77114 0.63758,1.32309 0.88672,1.51367 l 0.23633,0.60547 c -0.0863,0.11942 -0.0808,0.34801 0.12109,0.91211 0.20471,0.572 0.4936,1.12865 0.64063,1.23633 0.14699,0.10767 0.25638,0.32218 0.24218,0.47851 -0.0142,0.15632 0.12764,0.75222 0.31641,1.32422 0.13224,0.4007 0.34266,0.68363 0.54687,0.85742 l 0.3125,0.80469 c -0.069,0.24996 0.0228,0.65716 0.3125,1.30273 0.27576,0.61426 0.47868,1.22347 0.45118,1.35547 -0.0275,0.132 0.0955,0.24024 0.27148,0.24024 0.176,0 0.31836,0.25747 0.31836,0.57226 0,0.31478 0.28863,1.1377 0.64063,1.82813 0.352,0.69043 0.64062,1.44119 0.64062,1.66797 0,0.22679 0.13377,0.41211 0.29883,0.41211 0.16506,0 0.28718,0.25254 0.27148,0.56054 -0.0158,0.308 0.35362,1.37818 0.82032,2.37891 0.46669,1.00072 0.8496,2.00213 0.8496,2.22461 1e-5,0.1935 0.073,0.21786 0.18165,0.16406 l 0.2832,0.68555 c -0.0289,0.1844 0.0181,0.40062 0.21289,0.75195 0.23006,0.41489 0.43563,0.82606 0.45703,0.91406 0.0958,0.39307 0.5547,1.54305 1.08399,2.72071 0.31619,0.704 0.60743,1.42361 0.64843,1.59961 0.041,0.176 0.23356,0.60698 0.42774,0.95898 0.19418,0.352 0.38121,0.78494 0.41601,0.96094 0.15289,0.77326 1.38766,3.30848 1.70703,3.50586 0.19343,0.11955 0.26423,0.35774 0.15821,0.52929 -0.10602,0.17155 -0.0524,0.48693 0.11718,0.69922 0.16961,0.21229 0.41328,0.74555 0.54297,1.18555 0.12969,0.44 0.52538,1.48431 0.87891,2.32031 0.21222,0.50185 0.36757,0.63503 0.55469,0.91211 l 0.39453,1.16211 c -0.0204,0.0759 -0.0645,0.0841 -0.0645,0.21875 10e-6,0.27867 0.14432,0.50586 0.32032,0.50586 0.176,0 0.28228,0.11663 0.23828,0.25781 -0.044,0.14119 0.23015,0.96904 0.60742,1.83985 0.37727,0.87082 0.94981,2.23164 1.27148,3.02343 0.32187,0.792 0.73125,1.54648 0.91211,1.67579 0.18082,0.1293 0.21422,0.23528 0.0723,0.23828 -0.14195,0.003 -0.0474,0.40076 0.21094,0.88476 0.25833,0.484 0.64666,1.384 0.86328,2 0.68338,1.94337 3.76847,8.98599 4.6582,10.63282 0.25913,0.47943 0.4824,0.98473 0.4961,1.12109 0.0137,0.13635 0.14826,0.5708 0.29882,0.9668 0.0861,0.22651 0.18571,0.23934 0.28711,0.35742 l 0.42774,1.13086 c 0.0363,0.46397 0.31598,1.29068 0.91211,2.60937 0.39337,0.87019 0.68453,1.69027 0.64843,1.82227 -0.0361,0.132 0.087,0.24023 0.27344,0.24023 0.18641,0 0.2494,0.14431 0.14063,0.32031 -0.10877,0.176 -0.0628,0.32032 0.10156,0.32032 0.16439,0 0.38816,0.4408 0.49609,0.98047 0.0849,0.4244 0.22856,0.63552 0.37696,0.70703 l -0.002,0.0117 0.30078,0.6875 c 0.003,0.0397 0.0155,0.0654 0.0391,0.0918 l 0.51367,1.17188 c 0.053,0.14608 0.0112,0.274 0.10547,0.39844 0.24632,0.32489 0.45298,0.84239 0.45898,1.15039 0.006,0.308 0.1466,0.56054 0.3125,0.56054 0.0174,0 0.018,-0.0242 0.0332,-0.0273 l 0.18165,0.41601 c -0.0884,0.0573 -0.0948,0.1499 0.0645,0.3418 0.18712,0.22547 0.40753,0.76469 0.49023,1.19922 0.21261,1.11694 0.5563,1.91016 0.82813,1.91016 0.12784,0 0.24963,0.18039 0.26953,0.40039 0.0733,0.80937 0.87434,2.79882 1.12695,2.79883 0.1434,0 0.18009,0.13311 0.0801,0.29492 -0.1,0.16181 0.0279,0.50448 0.28516,0.76172 0.25725,0.25723 0.39142,0.54411 0.29882,0.63671 -0.0924,0.0926 0.0651,0.61785 0.34961,1.16797 0.0454,0.0878 0.0975,0.13002 0.14649,0.20703 l -0.0449,0.0352 0.62695,1.01367 c -0.26903,0.27342 -0.27026,0.36328 0.0176,0.36328 0.2112,0 0.38662,0.25255 0.39062,0.56055 0.004,0.308 0.31618,1.208 0.69336,2 0.37718,0.792 0.69799,1.52324 0.71289,1.625 0.0149,0.10176 0.31214,0.71314 0.66016,1.35938 0.1527,0.28346 0.24676,0.31187 0.39453,0.51562 l -0.0527,0.004 0.60156,1.56054 c 0.0943,0.51098 0.41619,1.39019 1.07812,2.93555 0.26386,0.616 0.51982,1.32197 0.57032,1.56836 0.0505,0.24638 0.2098,0.53305 0.35351,0.63867 0.1437,0.10561 0.30412,0.39462 0.35742,0.64258 0.0533,0.24795 0.32752,0.96951 0.60938,1.60156 0.28187,0.63204 0.49204,1.25667 0.46484,1.38867 -0.0272,0.132 0.11694,0.24024 0.32227,0.24024 0.20535,0 0.28707,0.086 0.18164,0.19141 -0.10542,0.10522 0.12,0.78851 0.5,1.51757 0.38001,0.72906 0.71323,1.47455 0.74023,1.65821 0.0269,0.18366 0.49776,1.29619 1.04688,2.4707 0.54913,1.17452 0.99805,2.28066 0.99805,2.45898 0,0.17832 0.38315,1.15681 0.85156,2.17383 0.46841,1.01701 0.86656,1.92177 0.88476,2.00977 0.17719,0.85567 1.60711,3.83984 1.83985,3.83984 0.16594,0 0.21499,0.14236 0.10742,0.31641 -0.10757,0.17405 0.009,0.78542 0.25976,1.35937 0.25099,0.57395 0.92383,2.19552 1.49415,3.60352 0.5701,1.408 1.4431,3.42447 1.93945,4.48047 0.49636,1.056 1.22875,2.856 1.6289,4 0.40014,1.144 0.91239,2.4389 1.13868,2.8789 0.22629,0.44 0.41306,0.98138 0.41406,1.20117 10e-4,0.23508 0.13451,0.34166 0.30273,0.36133 l 0.49219,0.71485 c 0.13786,0.91486 0.8052,2.75327 2.00195,5.40234 0.35783,0.792 1.13378,2.66416 1.72461,4.16016 0.59082,1.496 1.21855,2.82577 1.39649,2.95508 0.17789,0.12909 0.19847,0.23723 0.0449,0.24023 -0.15353,0.003 -0.11239,0.20708 0.0918,0.45312 0.2042,0.24604 0.42714,0.71311 0.49414,1.03907 0.1112,0.54133 0.77362,2.1667 1.95898,4.80078 0.24957,0.5546 0.45508,1.1044 0.45508,1.2207 0,0.1163 0.33993,0.958 0.75586,1.8711 1.85164,4.06471 2.20531,4.8791 2.2539,5.17968 0.0871,0.53686 2.16304,5.41805 2.4629,5.79102 0.1545,0.1922 0.18612,0.44279 0.0703,0.55859 -0.11581,0.11576 -0.0177,0.21094 0.21679,0.21094 0.23469,0 0.33601,0.0898 0.22657,0.19922 -0.10943,0.10944 0.15579,0.89728 0.58789,1.75 0.4321,0.85271 0.78515,1.77116 0.78515,2.04101 0,0.26985 0.15171,0.49024 0.33789,0.49024 0.18638,0 0.2573,0.13303 0.15626,0.29687 -0.1013,0.16384 -0.0688,0.36983 0.0723,0.45703 0.42741,0.26413 0.43474,4.45276 0.01,5.48243 -0.51579,1.24973 -1.96557,2.56623 -2.91211,2.64453 -1.85228,0.1533 -4.39048,1.85145 -3.91602,2.61914 0.31009,0.50173 1.63273,0.41251 2.0918,-0.14063 0.2191,-0.264 0.50277,-0.47851 0.63086,-0.47851 0.12809,0 1.11821,-0.52634 2.19922,-1.16797 2.54544,-1.51094 3.44949,-2.71238 3.73046,-4.96289 0.18714,-1.49784 0.10673,-1.99287 -0.51171,-3.18164 -0.40281,-0.7743 -0.75993,-1.55252 -0.79493,-1.72852 -0.035,-0.176 -0.68437,-1.61522 -1.44336,-3.19922 -0.75878,-1.584 -1.40534,-2.98909 -1.43554,-3.12109 -0.0302,-0.132 -0.0908,-0.31239 -0.13477,-0.40039 -0.044,-0.088 -0.11615,-0.30252 -0.16015,-0.47852 -0.044,-0.176 -0.11616,-0.39247 -0.16016,-0.48047 -0.044,-0.088 -0.10978,-0.26839 -0.14648,-0.40039 -0.0367,-0.132 -0.23421,-0.64516 -0.43946,-1.14062 -0.20526,-0.49546 -0.375,-1.03468 -0.375,-1.19922 0,-0.16454 -0.14236,-0.30078 -0.31836,-0.30078 -0.176,0 -0.32031,-0.25552 -0.32031,-0.56836 0,-0.31284 -0.22407,-0.88814 -0.49805,-1.2793 -0.27398,-0.39116 -0.415,-0.71094 -0.3125,-0.71094 0.1025,0 -0.0625,-0.46901 -0.36718,-1.04101 -0.3047,-0.572 -0.52448,-1.1473 -0.48828,-1.2793 0.036,-0.132 -0.0779,-0.24023 -0.25391,-0.24023 -0.17602,0 -0.28935,-0.10824 -0.25195,-0.24024 0.0374,-0.132 -0.11246,-0.56298 -0.33204,-0.95898 -0.21959,-0.396 -0.30583,-0.7207 -0.1914,-0.7207 0.11444,0 -0.0352,-0.37115 -0.33203,-0.82422 -0.29686,-0.45307 -0.58864,-1.06445 -0.64844,-1.35938 -0.0597,-0.29493 -0.27452,-0.96809 -0.47852,-1.49609 -0.204,-0.528 -0.37092,-1.0333 -0.37109,-1.12109 -1.7e-4,-0.088 -0.19663,-0.37468 -0.43555,-0.63868 -0.23892,-0.264 -0.44744,-0.58664 -0.46484,-0.71679 -0.0743,-0.55727 -0.79766,-2.32365 -3.0293,-7.40235 -0.45403,-1.03327 -0.82617,-2.07758 -0.82617,-2.32031 0,-0.24273 -0.14236,-0.44141 -0.31836,-0.44141 -0.176,0 -0.32031,-0.27948 -0.32031,-0.62109 0,-0.34162 -0.1473,-0.71172 -0.32617,-0.82227 -0.17888,-0.11054 -0.248,-0.32488 -0.1543,-0.47656 0.0937,-0.15168 0.0398,-0.35688 -0.11914,-0.45508 -0.15892,-0.0982 -0.38408,-0.68283 -0.5,-1.30078 -0.0658,-0.35095 -0.19842,-0.43182 -0.31445,-0.63867 l 0.0137,-0.0254 -0.1543,-0.26172 c -0.036,-0.0296 -0.0643,-0.19922 -0.0977,-0.19922 -0.006,0 -0.002,0.0189 -0.008,0.0195 l -0.24414,-0.41601 c 0.0154,-0.21035 -0.062,-0.60106 -0.32812,-1.14649 -0.77718,-1.59249 -1.37841,-3.01567 -1.47071,-3.48047 -0.042,-0.2112 -0.47335,-1.21964 -0.95898,-2.24023 -0.48563,-1.02058 -0.90459,-1.92762 -0.92969,-2.01562 -0.0251,-0.088 -0.15692,-0.62722 -0.29297,-1.19922 -0.13605,-0.572 -0.4024,-1.04102 -0.59375,-1.04102 -0.19138,0 -0.25823,-0.0894 -0.14843,-0.19922 0.10979,-0.1098 -0.11168,-0.79333 -0.49219,-1.51953 -0.38051,-0.72621 -0.70606,-1.39247 -0.72266,-1.48047 -0.0879,-0.46569 -0.62965,-1.91171 -1.14062,-3.04101 -0.31854,-0.704 -1.03005,-2.46533 -1.58008,-3.91407 -0.55004,-1.44853 -1.13735,-2.71884 -1.30469,-2.82226 -0.16733,-0.10342 -0.2204,-0.32054 -0.11914,-0.48438 0.10125,-0.16384 0.007,-0.29882 -0.20898,-0.29882 -0.21576,0 -0.29745,-0.0951 -0.18164,-0.21094 0.11581,-0.1158 0.0515,-0.40247 -0.14454,-0.63867 -0.19602,-0.23619 -0.25088,-0.42969 -0.12109,-0.42969 0.12979,0 -7.6e-4,-0.36078 -0.28906,-0.80078 -0.28835,-0.44 -0.43862,-0.79883 -0.33399,-0.79883 0.10463,0 -0.0363,-0.22767 -0.31445,-0.50586 -0.27818,-0.27819 -0.42422,-0.63897 -0.32422,-0.80078 0.1,-0.16181 0.0591,-0.29492 -0.0898,-0.29492 -0.14893,0 -0.29066,-0.2506 -0.31445,-0.5586 -0.024,-0.308 -0.36548,-1.28015 -0.75977,-2.16015 -0.3943,-0.88 -0.69286,-1.70785 -0.66406,-1.83985 0.0288,-0.132 -0.075,-0.24023 -0.23047,-0.24023 -0.24553,0 -0.50479,-0.55079 -0.83203,-1.76953 -0.16659,-0.62042 -2.18249,-5.42968 -2.41016,-5.75 -0.1251,-0.176 -0.32188,-0.71717 -0.4375,-1.20117 -0.0432,-0.18085 -0.12843,-0.18811 -0.19531,-0.32813 l -0.47461,-1.00586 c 0.0154,-0.0416 0.0902,-0.0476 0.0586,-0.10547 -0.76682,-1.40318 -2.56677,-5.53547 -2.67968,-6.15234 -0.075,-0.40883 -0.15446,-0.58046 -0.24219,-0.72656 l 0.0156,-0.0156 -0.0723,-0.15039 c -0.003,-0.002 -0.003,-0.0173 -0.006,-0.0195 h -0.002 l -0.38281,-0.80274 -0.0176,-0.006 c -0.0447,-0.11008 -0.0649,-0.20641 -0.15234,-0.33985 -0.25713,-0.39242 -0.64885,-1.31551 -0.86914,-2.05078 -0.22029,-0.73528 -0.52178,-1.33594 -0.66992,-1.33594 -0.14814,0 -0.26758,-0.27948 -0.26758,-0.62109 0,-0.34162 -0.14431,-0.71154 -0.32031,-0.82031 -0.176,-0.10877 -0.32032,-0.46609 -0.32032,-0.79492 0,-0.32904 -0.25254,-0.85021 -0.56054,-1.15821 -0.308,-0.308 -0.51589,-0.64357 -0.46289,-0.74414 0.053,-0.10057 8.2e-4,-0.47026 -0.11524,-0.82226 -0.116,-0.352 -0.19478,-0.74691 -0.17578,-0.87891 0.006,-0.0384 -0.11026,-0.038 -0.14062,-0.0703 l 0.0195,-0.01 -1.10938,-2.33398 c -0.098,-0.25358 -0.11417,-0.37323 -0.25,-0.68946 -0.20109,-0.46815 -0.37916,-0.77708 -0.52929,-0.94922 l -0.35743,-0.75 c 0.011,-0.11551 -0.0357,-0.24997 -0.18164,-0.42578 -0.20612,-0.24833 -0.28204,-0.45312 -0.16797,-0.45312 0.11407,0 -0.0425,-0.46706 -0.34765,-1.03906 -0.30514,-0.572 -0.56648,-1.11122 -0.58008,-1.19922 -0.0136,-0.088 -0.20387,-0.48486 -0.42383,-0.88086 -0.2204,-0.396 -0.31697,-0.7207 -0.2168,-0.7207 0.10038,0 0.001,-0.32276 -0.21874,-0.71876 -0.39754,-0.7155 -0.46452,-0.90913 -0.54102,-1.52148 -0.0111,-0.0885 -0.12659,-0.10249 -0.19922,-0.16016 l -0.38476,-1.07031 c -0.005,-0.0209 0.002,-0.0267 -0.004,-0.0488 -0.005,-0.0181 -0.02,-0.0155 -0.0254,-0.0332 l -0.0312,-0.0859 -0.0274,0.0137 c -0.11005,-0.27114 -0.26568,-0.53516 -0.41992,-0.53516 -0.18483,0 -0.24395,-0.09 -0.13281,-0.20117 0.11114,-0.11115 0.0318,-0.50801 -0.17578,-0.88086 -0.20757,-0.37286 -0.39462,-0.74989 -0.41602,-0.83789 -0.12282,-0.50417 -0.61241,-1.67247 -1.44336,-3.44532 -0.51714,-1.10312 -0.9414,-2.21979 -0.9414,-2.48046 0,-0.26067 -0.14452,-0.47266 -0.32031,-0.47266 -0.176,0 -0.31836,-0.21799 -0.31836,-0.48438 0,-0.26639 -0.13632,-0.7354 -0.30079,-1.04101 -0.16447,-0.30561 -0.4863,-1.0237 -0.71679,-1.5957 -0.23049,-0.572 -0.51155,-1.03907 -0.625,-1.03907 -0.11345,0 -0.30683,-0.52741 -0.42774,-1.17187 -0.1209,-0.64446 -0.57935,-1.90524 -1.01953,-2.80078 -0.44018,-0.89554 -1.20137,-2.70204 -1.6914,-4.01367 -0.33782,-0.90435 -0.65522,-1.55869 -0.92774,-2.00391 -0.0656,-0.25877 -0.26678,-0.84425 -0.39453,-1.20899 -0.002,-0.0179 -0.0136,-0.0358 -0.0176,-0.0547 -0.0534,-0.15192 -0.0918,-0.25782 -0.0918,-0.25782 l -0.0664,-0.006 c -0.0698,-0.12934 -0.0923,-0.24857 -0.22656,-0.38281 -0.23414,-0.23414 -0.36763,-0.60416 -0.29493,-0.82226 0.0727,-0.2181 -0.17564,-0.89572 -0.55273,-1.50586 -0.3771,-0.61015 -0.758,-1.50982 -0.8457,-2 -0.0877,-0.49018 -0.34744,-1.18253 -0.57813,-1.53711 -0.23069,-0.35458 -0.52141,-1.11027 -0.64648,-1.67969 -0.12507,-0.56942 -0.33052,-1.03516 -0.45508,-1.03516 -0.12456,0 -0.2497,-0.32145 -0.2793,-0.71484 -0.0296,-0.39339 -0.2057,-0.76652 -0.39062,-0.82812 -0.18487,-0.0616 -0.26258,-0.23213 -0.17188,-0.37891 0.0907,-0.14678 -0.0167,-0.45917 -0.23828,-0.69336 -0.22162,-0.23419 -0.45207,-0.71245 -0.51367,-1.06445 -0.0616,-0.352 -0.21632,-0.71278 -0.34375,-0.80078 -0.12744,-0.088 -0.41784,-0.83542 -0.64453,-1.66016 -0.21034,-0.76523 -0.55831,-1.41973 -0.8125,-1.5957 l -0.28906,-0.68946 c 0.0648,-0.11927 0.10327,-0.20397 0.0801,-0.20898 -0.0128,-0.003 -0.0855,0.0663 -0.12695,0.0977 l -0.3457,-0.82031 c -0.0221,-0.71899 -0.45227,-1.84375 -0.83203,-1.84375 -0.17762,0 -0.24289,-0.20395 -0.14649,-0.45508 0.0964,-0.25114 -0.0316,-0.62712 -0.2832,-0.83593 -0.25157,-0.20881 -0.38784,-0.49312 -0.30274,-0.63086 0.0851,-0.13774 -0.0583,-0.66175 -0.32031,-1.16407 -0.26198,-0.5021 -0.47751,-1.0925 -0.47851,-1.3125 -0.001,-0.21979 -0.14202,-0.40039 -0.3125,-0.40039 -0.17049,0 -0.23518,-0.19814 -0.14258,-0.43945 0.0926,-0.24131 -0.0199,-0.63642 -0.25,-0.8789 -0.23012,-0.24269 -0.46343,-0.73004 -0.51953,-1.08204 -0.0561,-0.352 -0.37121,-1.16601 -0.69922,-1.80859 -0.32799,-0.64257 -0.50972,-1.25415 -0.4043,-1.35937 0.10543,-0.10538 0.0328,-0.19141 -0.16211,-0.19141 -0.0271,0 -0.0376,0.0139 -0.0625,0.0156 l -0.17969,-0.45898 c 0.0276,-0.0881 -0.0145,-0.2265 -0.1289,-0.4375 -0.13733,-0.25324 -0.5131,-1.209 -0.85547,-2.10547 l -1.16797,-3.01172 c 0.0237,-0.12964 -0.0885,-0.37087 -0.25,-0.64648 l -0.7207,-1.85742 c -0.18166,-0.35772 -0.32837,-0.74134 -0.29492,-0.85938 0.004,-0.0145 -0.0474,-0.0116 -0.0488,-0.0254 l -0.78711,-2.0332 c -0.0565,-0.32205 -0.11562,-0.56104 -0.21094,-0.65235 -0.009,-0.009 -0.0295,0.0126 -0.0391,0.006 l -0.28516,-0.73437 -0.12695,0.0527 c -0.0339,-0.0297 -0.0316,-0.0571 -0.0801,-0.0879 -0.23878,-0.1513 -0.30785,-0.2763 -0.1543,-0.2793 0.15354,-0.003 0.12986,-0.18429 -0.0527,-0.40429 -0.18258,-0.22 -0.34618,-0.54471 -0.36328,-0.72071 -0.0663,-0.68371 -0.39917,-1.43945 -0.63281,-1.43945 -0.13481,0 -0.25629,-0.18039 -0.27149,-0.40039 -0.0478,-0.69199 -0.33035,-1.63938 -0.85742,-2.87891 -0.28029,-0.65895 -0.506,-1.27258 -0.5,-1.36328 0.006,-0.0907 -0.23529,-0.63102 -0.53711,-1.20117 -0.30182,-0.57016 -0.59434,-1.29591 -0.64844,-1.61328 -0.0541,-0.31737 -0.31674,-1.0008 -0.58398,-1.51758 -0.26724,-0.51679 -0.45908,-0.97754 -0.42578,-1.02344 0.0333,-0.0458 -0.13773,-0.44281 -0.38086,-0.88281 -0.24313,-0.44 -0.41045,-0.90706 -0.37305,-1.03906 0.0374,-0.132 -0.0759,-0.24023 -0.25195,-0.24024 -0.176,0 -0.29196,-0.10823 -0.25586,-0.24023 0.0695,-0.25442 -0.65967,-2.58043 -0.97852,-3.12109 -0.1038,-0.176 -0.2306,-0.59541 -0.2832,-0.9336 -0.0526,-0.33818 -0.21763,-0.77111 -0.36719,-0.96093 -0.14957,-0.18981 -0.45156,-0.92121 -0.66992,-1.625 -0.40335,-1.30044 -1.08288,-2.08008 -1.8125,-2.08008 z m -0.23828,47.83593 c 0.11236,-0.002 0.21686,0.0798 0.32812,0.23047 0.16797,0.22746 1.42831,3.29446 2.79883,6.81446 1.37052,3.51979 2.94039,7.40667 3.49024,8.63867 1.04967,2.35192 1.38468,4.8083 0.75781,5.57031 -0.20323,0.24705 -0.33502,0.49955 -0.29102,0.56055 0.0417,0.0577 0.0616,0.13412 0.0527,0.17969 l -0.63867,1.56054 c -0.18787,0.1289 -0.34868,0.33831 -0.34961,0.48633 -9.9e-4,0.15632 -0.18123,0.71614 -0.40039,1.24414 -0.046,0.11075 -0.0379,0.18648 -0.082,0.30274 l -2.38476,5.8164 c -0.008,0.0219 -0.0384,0.0185 -0.0449,0.041 -0.0635,0.21879 -0.28705,0.76362 -0.48438,1.25 l -3.26367,7.96484 c -0.0446,0.10671 -0.0712,0.14117 -0.10937,0.26758 l -0.78711,1.91797 c -0.0794,0.14456 -0.19529,0.23451 -0.22461,0.39062 -0.0628,0.33439 -0.14224,0.6435 -0.17774,0.6875 -0.0354,0.044 -0.0927,0.18832 -0.12695,0.32032 -0.0342,0.132 -0.46097,1.10415 -0.94727,2.16015 -0.4863,1.056 -0.92847,2.13639 -0.98437,2.40039 -0.0559,0.264 -0.70411,1.91969 -1.43945,3.67969 -0.73554,1.76 -1.55983,3.77647 -1.83204,4.48047 -0.27221,0.704 -0.6795,1.71223 -0.90429,2.24023 -1.0723,2.51866 -1.22839,2.88997 -1.27539,3.03907 -0.17266,0.54735 -0.57465,1.57193 -0.94141,2.40039 -0.23375,0.528 -0.65641,1.4863 -0.93945,2.1289 -0.28303,0.6426 -0.51368,1.32765 -0.51368,1.52344 1e-5,0.19579 -0.12332,0.6065 -0.27343,0.91211 -0.90399,1.84053 -2.29713,5.11845 -2.41211,5.67578 -0.0363,0.176 -0.22405,0.60699 -0.41797,0.95899 -0.19393,0.35179 -0.40324,0.92945 -0.46484,1.28124 -0.0616,0.352 -0.21619,0.71711 -0.34375,0.8125 -0.12755,0.0956 -0.28637,0.45643 -0.35157,0.80079 -0.0652,0.34436 -0.57602,1.62129 -1.13672,2.83789 -0.56071,1.21659 -1.05836,2.44129 -1.10546,2.7207 -0.0471,0.2794 -0.26484,0.83056 -0.48243,1.22656 -0.21757,0.396 -0.33065,0.72071 -0.25195,0.72071 0.0787,0 -0.35985,1.18862 -0.97461,2.64062 -0.61475,1.452 -1.24411,3.04973 -1.39844,3.55078 -0.15433,0.50106 -0.42753,1.08793 -0.60742,1.30469 -0.17989,0.21675 -0.38071,0.67179 -0.44531,1.00976 -0.0646,0.33819 -0.28343,1.02017 -0.48633,1.51563 -0.2029,0.49546 -0.36914,0.96447 -0.36914,1.04297 0,0.0785 -0.27039,0.75392 -0.60156,1.5 -0.61384,1.38292 -1.4461,3.46689 -1.5,3.75586 -0.0164,0.088 -0.34242,0.85708 -0.72461,1.70898 -0.26937,0.60045 -0.31291,0.93506 -0.375,1.27735 l -0.0566,0.0215 -0.65235,1.69336 c -0.001,0.0112 -0.0109,0.0122 -0.0117,0.0234 -0.0296,0.39339 -0.16614,0.71484 -0.30469,0.71484 -0.13854,0 -0.25196,0.25937 -0.25196,0.57617 0,0.3168 -0.12671,0.71366 -0.28124,0.88086 -0.22277,0.24071 -0.98085,2.20279 -1.16797,3.02344 -0.0522,0.22892 -0.81153,1.98403 -1.12696,2.60547 -0.1467,0.28903 -0.17924,0.61373 -0.0723,0.7207 0.007,0.007 0.0181,0.005 0.0254,0.0117 l -0.16016,0.39258 c -0.1426,0.0669 -0.29224,0.19594 -0.41211,0.41992 -0.19098,0.35693 -0.26812,0.65039 -0.16992,0.65039 0.0983,0 -0.0293,0.32275 -0.28516,0.71875 -0.68043,1.05337 -2.09103,4.95194 -1.87109,5.17188 0.10358,0.10363 0.0198,0.18945 -0.18555,0.18945 -0.20533,0 -0.35066,0.10628 -0.32226,0.23828 0.0484,0.22495 -0.33849,1.32851 -0.98438,2.80078 -0.97297,2.21784 -1.31249,3.03611 -1.78711,4.32031 -0.29266,0.792 -0.74284,1.83285 -1,2.3125 -0.25717,0.47964 -0.45034,0.91059 -0.43164,0.95899 0.0646,0.16677 -0.41149,1.37432 -1.32812,3.36914 -0.50568,1.10047 -0.92035,2.1087 -0.91992,2.24023 8.4e-4,0.25378 -1.5936,4.15088 -2.59961,6.35352 -0.33035,0.72328 -0.59961,1.48244 -0.59961,1.68555 0,0.20311 -0.13569,0.61821 -0.30078,0.92382 -0.6684,1.23733 -1.93946,4.21888 -1.93946,4.54883 0,0.19391 -0.29995,0.94067 -0.66601,1.65821 -0.36607,0.71734 -0.72267,1.61087 -0.79297,1.98632 -0.0703,0.37544 -0.26422,0.97027 -0.42969,1.32227 -0.89961,1.91373 -1.93475,4.34748 -2.44922,5.75977 -0.32056,0.87979 -1.30225,2.44165 -2.18164,3.4707 l -1.59765,1.87109 -2.09961,-0.22461 c -1.59613,-0.17093 -2.28254,-0.40752 -2.86524,-0.99023 -0.93915,-0.9391 -1.19531,-0.9535 -1.65429,-0.0957 -0.58943,1.10136 0.62829,2.09825 3.00976,2.46485 1.08145,0.16647 2.07915,0.32135 2.2168,0.34375 0.97143,0.15827 5.02729,-2.75431 5.02929,-3.61133 2.9e-4,-0.1609 0.63187,-1.88895 1.4043,-3.83984 1.73211,-4.37515 2.35803,-6.03605 2.39453,-6.35157 0.0155,-0.13385 0.22763,-0.63699 0.47266,-1.11914 0.24503,-0.48216 0.98678,-2.24617 1.64648,-3.91796 0.65971,-1.672 1.45186,-3.61632 1.76172,-4.32032 0.50131,-1.13898 1.03599,-2.59303 1.11719,-3.03906 0.016,-0.088 0.27884,-0.62722 0.58398,-1.19922 0.30511,-0.572 0.46173,-1.04101 0.34766,-1.04101 -0.11407,0 -0.0621,-0.1806 0.11523,-0.40039 0.17728,-0.22 0.84512,-1.80324 1.48438,-3.51954 1.20414,-3.23272 1.67191,-4.36777 2.95508,-7.17968 0.41656,-0.91292 0.75586,-1.78127 0.75586,-1.92969 0,-0.14842 0.49925,-1.45374 1.10937,-2.90039 0.61013,-1.44666 1.03546,-2.63086 0.94336,-2.63086 -0.0921,0 0.0385,-0.39491 0.29102,-0.87891 0.60255,-1.15495 1.15913,-2.50675 1.53711,-3.55469 l 0.0195,0.004 1.61523,-3.67187 -0.18164,0.01 c 0.32147,-0.51947 0.83622,-1.78654 0.96875,-2.55859 0.0539,-0.31388 0.34999,-0.95539 0.6582,-1.42578 0.30821,-0.47038 0.51344,-0.86114 0.45704,-0.86914 -0.10979,-0.0151 0.20294,-0.88934 1.00781,-2.81446 0.13935,-0.33326 0.11299,-0.38767 0.17578,-0.60547 l 0.0996,-0.16601 0.21094,-0.83594 c 0.047,-0.12422 0.0101,-0.14086 0.10547,-0.3125 0.21975,-0.396 0.41218,-0.79091 0.42578,-0.87891 0.0136,-0.0878 0.27183,-0.62471 0.57422,-1.1914 0.30219,-0.56668 0.52509,-1.14198 0.49609,-1.2793 -0.029,-0.13731 0.20687,-0.8253 0.52344,-1.5293 0.31657,-0.70379 0.57998,-1.45968 0.58398,-1.67968 0.004,-0.22 0.10776,-0.40039 0.23242,-0.40039 0.12467,0 0.33807,-0.46902 0.47266,-1.04102 0.28633,-1.21694 0.24482,-1.0957 0.7793,-2.32031 1.56533,-3.58701 2.5938,-6.15693 2.73632,-6.83984 0.0597,-0.28606 0.32612,-0.95052 0.59375,-1.47852 0.26764,-0.528 0.55538,-1.32172 0.63868,-1.76172 0.0833,-0.44 0.52341,-1.49063 0.97851,-2.33594 0.45509,-0.84532 0.82813,-1.66313 0.82813,-1.81836 0,-0.15523 0.16778,-0.68813 0.37304,-1.18359 0.20525,-0.49546 0.39548,-0.97255 0.42188,-1.06055 0.0264,-0.088 0.27896,-0.66525 0.5625,-1.28125 0.51635,-1.12179 0.80722,-1.94041 0.79492,-2.24023 -0.004,-0.088 0.28429,-0.73566 0.64062,-1.43945 0.35655,-0.704 0.74959,-1.74832 0.87305,-2.32032 0.12347,-0.572 0.3719,-1.03906 0.55274,-1.03906 0.18081,0 0.24207,-0.23013 0.13476,-0.50977 -0.10826,-0.28192 0.0897,-0.87016 0.44531,-1.32226 0.35248,-0.4481 0.64063,-1.01722 0.64063,-1.26367 0,-0.24646 0.23334,-0.80252 0.51758,-1.23633 0.28382,-0.43381 0.41104,-0.78906 0.28125,-0.78906 -0.12979,0 -0.057,-0.21452 0.16211,-0.47852 0.21908,-0.264 0.30453,-0.48047 0.1914,-0.48047 -0.11313,0 0.0881,-0.57725 0.44727,-1.28125 0.35915,-0.704 0.56688,-1.27929 0.46094,-1.27929 -0.10593,0 0.10564,-0.48083 0.46875,-1.06836 0.36311,-0.58753 0.70612,-1.34322 0.76171,-1.67969 0.0558,-0.33647 0.25379,-0.89995 0.44141,-1.25195 0.18758,-0.352 0.27617,-0.81907 0.19727,-1.03907 -0.0789,-0.22 -0.008,-0.40039 0.15625,-0.40039 0.28028,0 1.95796,-3.59943 2.11328,-4.5332 0.0391,-0.2352 0.25102,-0.75049 0.46875,-1.14649 0.21806,-0.39579 0.31936,-0.7207 0.22656,-0.7207 -0.0928,0 0.25992,-0.82784 0.78516,-1.83984 0.52524,-1.012 1.00054,-2.12847 1.05664,-2.48047 0.0561,-0.352 0.49246,-1.39631 0.96875,-2.32031 0.0105,-0.0205 0.005,-0.0168 0.0156,-0.0371 l 0.0879,0.0352 3.31836,-8.26757 c 0.0641,-0.13852 0.19345,-0.44041 0.23633,-0.5293 0.006,-0.0126 -0.0174,-0.0113 -0.0137,-0.0234 l 1.82226,-4.54101 c 7.9e-4,-0.0246 0.10801,-0.0229 0.0801,-0.0508 -0.061,-0.0609 0.0828,-0.30635 0.13477,-0.48437 l 1.1875,-2.95898 c 0.0351,-0.0985 0.0684,-0.14297 0.10156,-0.24024 0.37939,-1.11234 0.81923,-2.18663 0.97852,-2.38867 0.15929,-0.20204 0.34812,-0.67191 0.41992,-1.04492 0.14678,-0.76214 0.90437,-1.62891 1.42383,-1.62891 0.74812,0 0.2778,2.62283 -1.12305,6.26758 -1.77143,4.60873 -1.77988,4.62847 -2.82227,6.9414 -0.45821,1.01681 -0.83203,2.03017 -0.83203,2.25 0,0.22004 -0.44616,1.25941 -0.99219,2.31055 -0.54583,1.05115 -1.04186,2.12663 -1.10156,2.39063 -0.0597,0.264 -0.8586,2.35262 -1.77539,4.64062 -2.28642,5.70611 -2.61859,6.60246 -2.52539,6.84375 0.0264,0.0683 -0.11758,0.22822 -0.32031,0.35352 -0.20274,0.12529 -0.40849,0.4294 -0.45899,0.67578 -0.0505,0.24639 -0.31419,0.95041 -0.58398,1.56641 -0.26979,0.61579 -0.5889,1.58815 -0.71094,2.16015 -0.12203,0.572 -0.37896,1.04102 -0.57031,1.04102 -0.19138,0 -0.25966,0.088 -0.15234,0.19531 0.10732,0.10732 -0.0857,0.7174 -0.42774,1.35547 -0.34198,0.63807 -0.62109,1.38864 -0.62109,1.66992 0,0.28127 -0.10824,0.61995 -0.24024,0.75195 -0.132,0.132 -0.24595,0.33579 -0.25195,0.45313 -0.006,0.11733 -0.1902,0.53759 -0.41016,0.93359 -0.21995,0.396 -0.31013,0.7207 -0.19921,0.7207 0.11091,0 -0.17649,0.64746 -0.64063,1.43946 -0.46415,0.792 -0.74978,1.43945 -0.63281,1.43945 0.11697,0 0.0335,0.21647 -0.18555,0.48047 -0.21908,0.264 -0.27951,0.48047 -0.13476,0.48047 0.14475,0 0.0901,0.17161 -0.1211,0.38281 -0.2112,0.2112 -0.38281,0.59385 -0.38281,0.84961 0,0.25576 -0.45063,1.41513 -1,2.57617 -0.54936,1.16104 -1.02409,2.25564 -1.05469,2.43164 -0.1151,0.66126 -1.28538,3.54659 -1.71289,4.22266 -0.24454,0.38672 -0.42298,0.74553 -0.39648,0.79883 0.0265,0.0533 -0.10676,0.50258 -0.29492,0.99804 -0.18838,0.49546 -0.3418,1.07569 -0.3418,1.28907 0,0.21338 -0.19442,0.67237 -0.43164,1.01953 -0.33734,0.4937 -1.42043,3.051 -1.68946,3.99023 -0.3122,1.08991 -0.68035,1.96436 -1.40429,3.33008 -0.47555,0.89715 -1.32592,2.92772 -1.89063,4.51172 -0.56471,1.584 -1.15207,3.16753 -1.30468,3.51953 -1.23551,2.846 -1.67014,3.88419 -1.74024,4.16016 -0.0447,0.176 -0.24618,0.72524 -0.44922,1.2207 -0.20304,0.49546 -0.36914,1.01289 -0.36914,1.15039 0,0.1375 -0.23625,0.72119 -0.52344,1.29688 -0.46075,0.92339 -0.71198,1.73254 -1.23437,3.96484 -0.0763,0.32596 -0.29313,0.77777 -0.48242,1.00586 -0.18929,0.22809 -0.40607,0.68185 -0.48047,1.00781 -0.21879,0.95837 -0.98327,2.96352 -1.2207,3.20117 -0.12062,0.12062 -0.21971,0.44595 -0.22071,0.72461 -10e-4,0.27867 -0.23051,0.9388 -0.50976,1.4668 -0.56922,1.07629 -2.21771,5.07484 -2.33985,5.67578 -0.0264,0.12974 -0.32076,0.87228 -0.65429,1.65039 -0.33356,0.77811 -0.52213,1.50131 -0.41797,1.60547 0.10415,0.10417 0.0314,0.18945 -0.16211,0.18945 -0.29705,0 -0.6708,0.69935 -0.89844,1.67969 -0.0307,0.132 -0.0927,0.31239 -0.13672,0.40039 -0.044,0.088 -0.10341,0.26644 -0.13281,0.39844 -0.0294,0.132 -0.37119,0.94241 -0.75977,1.80078 -0.38857,0.85837 -0.70703,1.68968 -0.70703,1.8457 0,0.15602 -0.13721,0.53228 -0.30469,0.83789 -0.16747,0.30561 -0.50982,1.05979 -0.76171,1.67579 -0.25189,0.61579 -0.96068,2.34384 -1.57422,3.83984 -0.61355,1.496 -1.50428,3.80109 -1.98047,5.12109 -0.47619,1.32 -1.20513,3.12 -1.61914,4 -0.41402,0.88 -1.21029,2.75216 -1.76953,4.16016 -0.55924,1.408 -1.27341,3.13584 -1.58594,3.83984 -0.31252,0.704 -1.17185,2.86283 -1.91016,4.79883 -1.57208,4.12235 -1.90943,4.88606 -2.5664,5.80469 -0.26863,0.37563 -0.7028,0.99756 -0.9668,1.38281 -0.78875,1.15099 -2.72266,3.0255 -3.54883,3.44141 -0.66207,0.3333 -2.39523,0.43871 -2.67383,0.16211 -0.0499,-0.0495 -0.41287,-0.15272 -0.80664,-0.22852 -0.39377,-0.0758 -0.88194,-0.27119 -1.08398,-0.43555 -0.20204,-0.16436 -0.92771,-0.37279 -1.61133,-0.46289 -0.68363,-0.0901 -1.36399,-0.35759 -1.51367,-0.59375 -0.14968,-0.23621 -0.27435,-0.31659 -0.27735,-0.17773 -0.003,0.13885 -0.31491,-0.0359 -0.69335,-0.38867 -0.37866,-0.35277 -0.8116,-0.56496 -0.96094,-0.47266 -0.14935,0.0923 -0.27149,0.007 -0.27149,-0.18945 0,-0.1968 -0.14502,-0.26971 -0.32226,-0.16016 -0.17724,0.10954 -0.40847,-0.0247 -0.51367,-0.29883 -0.1052,-0.2741 -0.31901,-0.41771 -0.47657,-0.32031 -0.15756,0.0974 -0.28711,0.0383 -0.28711,-0.13086 0,-0.16917 -0.45028,-0.46461 -1,-0.65625 -0.54973,-0.19164 -1.45787,-0.83611 -2.01953,-1.43164 l -1.02148,-1.08203 0.36719,-2.52148 c 0.38829,-2.66964 1.07289,-4.91993 1.49804,-4.91993 0.1407,0 0.23423,-0.10823 0.20703,-0.24023 -0.0482,-0.234 0.45392,-1.48374 1.64258,-4.08008 1.17712,-2.57113 2.93537,-6.7317 3.04102,-7.19922 0.0597,-0.264 0.40408,-1.164 0.76562,-2 0.36153,-0.836 0.57204,-1.51953 0.46875,-1.51953 -0.1033,0 -0.0381,-0.18039 0.14453,-0.40039 0.18258,-0.22 0.34257,-0.50799 0.35547,-0.64062 0.013,-0.13284 0.24181,-0.76374 0.50782,-1.4004 0.2658,-0.63644 0.48242,-1.28299 0.48242,-1.4375 0,-0.15451 0.11521,-0.28125 0.25586,-0.28125 0.14064,0 0.45004,-0.54117 0.6875,-1.20117 0.23745,-0.66 0.8383,-2.06314 1.33398,-3.11914 0.82242,-1.75207 1.83452,-4.31249 3.03516,-7.67969 0.25102,-0.70379 0.83466,-2.14517 1.29687,-3.20117 0.4622,-1.056 0.95879,-2.20659 1.10352,-2.55859 0.79485,-1.93305 3.22537,-7.43999 3.49414,-7.91602 0.17255,-0.30561 0.31445,-0.72696 0.31445,-0.93554 0,-0.46978 1.35748,-3.94353 2.54492,-6.50977 0.48863,-1.056 0.98873,-2.27875 1.11133,-2.71875 0.12261,-0.44 0.35075,-1.08745 0.50781,-1.43945 0.15706,-0.352 0.66621,-1.57671 1.13086,-2.72071 1.05871,-2.60643 1.62937,-3.952 2.41016,-5.68945 0.33826,-0.75271 0.61328,-1.50344 0.61328,-1.66992 0,-0.16648 0.34879,-1.06338 0.77344,-1.99219 1.41772,-3.10096 5.50715,-12.80176 7.05273,-16.72851 0.20781,-0.528 0.54047,-1.31977 0.73828,-1.75977 1.79824,-4.00004 2.95703,-6.90341 2.95703,-7.41016 10e-6,-0.3353 0.19911,-0.68755 0.44336,-0.78125 0.24425,-0.0937 0.53171,-0.60769 0.63868,-1.14257 0.10698,-0.53487 0.82769,-2.36073 1.60156,-4.0586 1.71689,-3.76666 2.93408,-6.62092 4.51172,-10.58203 0.66043,-1.65822 1.4704,-3.45822 1.80078,-4 0.33038,-0.54178 0.60091,-1.16135 0.60156,-1.37695 6.6e-4,-0.21559 0.43294,-1.33547 0.96094,-2.48828 0.528,-1.15281 0.96094,-2.17844 0.96094,-2.2793 0,-0.10085 0.6364,-1.50254 1.41406,-3.11328 0.77767,-1.61074 2.08838,-4.65558 2.91406,-6.76758 0.82567,-2.112 1.84692,-4.60009 2.26758,-5.5293 0.42066,-0.92922 0.76367,-1.75754 0.76367,-1.83984 0,-0.0823 0.41211,-1.04992 0.91406,-2.15039 2.10829,-4.62221 5.51554,-12.40582 6.38477,-14.58203 0.80047,-2.00405 1.20002,-2.77635 1.53711,-2.78321 z" />
  </g>
</svg>
